<svg height="480pt" viewBox="0 -152 480 480" width="480pt" xmlns="http://www.w3.org/2000/svg"><g fill="#60a2d7"><path d="m356 32.035156c-20.355469.390625-40.644531-2.40625-60.136719-8.289062-18.117187-5.507813-36.996093-8.109375-55.925781-7.710938-18.90625-.394531-37.753906 2.207032-55.839844 7.710938-19.480468 5.882812-39.757812 8.679687-60.097656 8.289062-20.351562.390625-40.640625-2.40625-60.128906-8.289062-18.097656-5.503906-36.957032-8.105469-55.871094-7.710938-4.417969 0-8-3.582031-8-8 0-4.417968 3.582031-7.9999998 8-7.9999998 20.347656-.3906252 40.636719 2.4062498 60.121094 8.2890628 18.101562 5.503906 36.960937 8.109375 55.878906 7.710937 18.902344.394532 37.75-2.207031 55.839844-7.710937 19.476562-5.878907 39.753906-8.675781 60.097656-8.2890628 20.355469-.3867182 40.648438 2.4062498 60.140625 8.2890628 18.117187 5.507812 36.992187 8.109375 55.921875 7.710937 18.917969.398438 37.78125-2.207031 55.886719-7.710937 19.484375-5.878907 39.765625-8.675781 60.113281-8.2890628 4.417969 0 8 3.5820318 8 7.9999998 0 4.417969-3.582031 8-8 8-18.917969-.394531-37.78125 2.207032-55.886719 7.710938-19.484375 5.878906-39.765625 8.675781-60.113281 8.289062zm0 0"/><path d="m356 80.035156c-20.355469.390625-40.644531-2.40625-60.136719-8.289062-18.117187-5.507813-36.996093-8.109375-55.925781-7.710938-18.90625-.394531-37.753906 2.207032-55.839844 7.710938-19.480468 5.882812-39.757812 8.679687-60.097656 8.289062-20.351562.390625-40.640625-2.40625-60.128906-8.289062-18.097656-5.503906-36.957032-8.105469-55.871094-7.710938-4.417969 0-8-3.582031-8-8 0-4.417968 3.582031-8 8-8 20.347656-.390625 40.636719 2.40625 60.121094 8.289063 18.101562 5.503906 36.960937 8.109375 55.878906 7.710937 18.902344.394532 37.75-2.207031 55.839844-7.710937 19.476562-5.878907 39.753906-8.675781 60.097656-8.289063 20.355469-.386718 40.648438 2.40625 60.140625 8.289063 18.117187 5.507812 36.992187 8.109375 55.921875 7.710937 18.917969.398438 37.78125-2.207031 55.886719-7.710937 19.484375-5.878907 39.765625-8.675781 60.113281-8.289063 4.417969 0 8 3.582032 8 8 0 4.417969-3.582031 8-8 8-18.917969-.394531-37.78125 2.207032-55.886719 7.710938-19.484375 5.878906-39.765625 8.675781-60.113281 8.289062zm0 0"/><path d="m356 128.035156c-20.355469.390625-40.644531-2.40625-60.136719-8.289062-18.117187-5.507813-36.996093-8.109375-55.925781-7.710938-18.90625-.394531-37.753906 2.207032-55.839844 7.710938-19.480468 5.882812-39.757812 8.679687-60.097656 8.289062-20.351562.390625-40.640625-2.40625-60.128906-8.289062-18.097656-5.503906-36.957032-8.105469-55.871094-7.710938-4.417969 0-8-3.582031-8-8 0-4.417968 3.582031-8 8-8 20.347656-.390625 40.636719 2.40625 60.121094 8.289063 18.101562 5.503906 36.960937 8.109375 55.878906 7.710937 18.902344.394532 37.75-2.207031 55.839844-7.710937 19.476562-5.878907 39.753906-8.675781 60.097656-8.289063 20.355469-.386718 40.648438 2.40625 60.140625 8.289063 18.117187 5.507812 36.992187 8.109375 55.921875 7.710937 18.917969.398438 37.78125-2.207031 55.886719-7.710937 19.484375-5.878907 39.765625-8.675781 60.113281-8.289063 4.417969 0 8 3.582032 8 8 0 4.417969-3.582031 8-8 8-18.917969-.394531-37.78125 2.207032-55.886719 7.710938-19.484375 5.878906-39.765625 8.675781-60.113281 8.289062zm0 0"/><path d="m356 176.035156c-20.355469.390625-40.644531-2.40625-60.136719-8.289062-18.117187-5.507813-36.996093-8.109375-55.925781-7.710938-18.90625-.394531-37.753906 2.207032-55.839844 7.710938-19.480468 5.882812-39.757812 8.679687-60.097656 8.289062-20.351562.390625-40.640625-2.40625-60.128906-8.289062-18.097656-5.503906-36.957032-8.105469-55.871094-7.710938-4.417969 0-8-3.582031-8-8 0-4.417968 3.582031-8 8-8 20.347656-.390625 40.636719 2.40625 60.121094 8.289063 18.101562 5.503906 36.960937 8.109375 55.878906 7.710937 18.902344.394532 37.75-2.207031 55.839844-7.710937 19.476562-5.878907 39.753906-8.675781 60.097656-8.289063 20.355469-.386718 40.648438 2.40625 60.140625 8.289063 18.117187 5.507812 36.992187 8.109375 55.921875 7.710937 18.917969.398438 37.78125-2.207031 55.886719-7.710937 19.484375-5.878907 39.765625-8.675781 60.113281-8.289063 4.417969 0 8 3.582032 8 8 0 4.417969-3.582031 8-8 8-18.917969-.394531-37.78125 2.207032-55.886719 7.710938-19.484375 5.878906-39.765625 8.675781-60.113281 8.289062zm0 0"/></g></svg>