<svg height="463pt" viewBox="0 -47 463.84305 463" width="463pt" xmlns="http://www.w3.org/2000/svg"><path d="m367.835938 288.960938h8c33.539062.003906 64.164062-19.058594 78.96875-49.15625 14.804687-30.09375 11.214843-65.988282-9.253907-92.554688-20.472656-26.570312-54.265625-39.191406-87.140625-32.546875-4.324218-21.582031-18.304687-39.992187-37.933594-49.957031-19.625-9.964844-42.738281-10.382813-62.714843-1.136719-18.078125-49.796875-73.101563-75.507813-122.898438-57.429687-49.796875 18.082031-75.507812 73.105468-57.429687 122.902343-43.621094 1.375-78.078125 37.480469-77.4257815 81.117188.6562495 43.640625 36.1835935 78.691406 79.8281255 78.761719" fill="#d0dad9"/><g fill="#60a2d7"><path d="m335.835938 320.960938c0 17.671874-14.328126 32-32 32-17.675782 0-32-14.328126-32-32 0-24 32-80 32-80s32 56 32 80zm0 0"/><path d="m255.835938 240.960938c0 17.671874-14.328126 32-32 32-17.675782 0-32-14.328126-32-32 0-24 32-80 32-80s32 56 32 80zm0 0"/><path d="m175.835938 336.960938c0 17.671874-14.328126 32-32 32-17.675782 0-32-14.328126-32-32 0-24 32-80 32-80s32 56 32 80zm0 0"/></g></svg>