<svg height="400pt" viewBox="0 0 400 400" width="400pt" xmlns="http://www.w3.org/2000/svg"><g fill="#a3d4f7"><path d="m200 400c-4.417969 0-8-3.582031-8-8v-144c0-4.417969 3.582031-8 8-8s8 3.582031 8 8v144c0 4.417969-3.582031 8-8 8zm0 0"/><path d="m232 384c-2.121094 0-4.15625-.84375-5.65625-2.34375l-26.34375-26.34375-26.34375 26.34375c-3.140625 3.03125-8.128906 2.988281-11.214844-.097656-3.085937-3.085938-3.128906-8.074219-.097656-11.214844l32-32c3.125-3.121094 8.1875-3.121094 11.3125 0l32 32c2.285156 2.289062 2.972656 5.730469 1.734375 8.71875s-4.15625 4.9375-7.390625 4.9375zm0 0"/><path d="m200 160c-4.417969 0-8-3.582031-8-8v-144c0-4.417969 3.582031-8 8-8s8 3.582031 8 8v144c0 4.417969-3.582031 8-8 8zm0 0"/><path d="m200 64c-2.121094 0-4.15625-.84375-5.65625-2.34375l-32-32c-3.03125-3.140625-2.988281-8.128906.097656-11.214844 3.085938-3.085937 8.074219-3.128906 11.214844-.097656l26.34375 26.34375 26.34375-26.34375c3.140625-3.03125 8.128906-2.988281 11.214844.097656 3.085937 3.085938 3.128906 8.074219.097656 11.214844l-32 32c-1.5 1.5-3.535156 2.34375-5.65625 2.34375zm0 0"/><path d="m392 208h-144c-4.417969 0-8-3.582031-8-8s3.582031-8 8-8h144c4.417969 0 8 3.582031 8 8s-3.582031 8-8 8zm0 0"/><path d="m376 240c-2.121094 0-4.15625-.84375-5.65625-2.34375l-32-32c-3.121094-3.125-3.121094-8.1875 0-11.3125l32-32c3.140625-3.03125 8.128906-2.988281 11.214844.097656 3.085937 3.085938 3.128906 8.074219.097656 11.214844l-26.34375 26.34375 26.34375 26.34375c2.285156 2.289062 2.972656 5.730469 1.734375 8.71875s-4.15625 4.9375-7.390625 4.9375zm0 0"/><path d="m152 208h-144c-4.417969 0-8-3.582031-8-8s3.582031-8 8-8h144c4.417969 0 8 3.582031 8 8s-3.582031 8-8 8zm0 0"/><path d="m24 240c-3.234375 0-6.152344-1.949219-7.390625-4.9375s-.550781-6.429688 1.734375-8.71875l26.34375-26.34375-26.34375-26.34375c-3.03125-3.140625-2.988281-8.128906.097656-11.214844 3.085938-3.085937 8.074219-3.128906 11.214844-.097656l32 32c3.121094 3.125 3.121094 8.1875 0 11.3125l-32 32c-1.5 1.5-3.535156 2.34375-5.65625 2.34375zm0 0"/></g><path d="m360 360-64-16-16-64 64 16zm0 0" fill="#b7f9fe"/><path d="m360 368c-.652344 0-1.304688-.082031-1.9375-.238281l-64-16c-2.863281-.714844-5.105469-2.953125-5.824219-5.816407l-16-64c-.679687-2.726562.117188-5.609374 2.101563-7.597656 1.988281-1.988281 4.871094-2.789062 7.597656-2.109375l64 16c2.863281.714844 5.105469 2.953125 5.824219 5.816407l16 64c.597656 2.390624.0625 4.925781-1.453125 6.867187-1.519532 1.941406-3.84375 3.078125-6.308594 3.078125zm-57.40625-30.601562 46.398438 11.601562-11.601563-46.398438-46.398437-11.601562zm0 0" fill="#a3d4f7"/><path d="m280 288c-2.121094 0-4.15625-.84375-5.65625-2.34375l-48-48c-3.03125-3.140625-2.988281-8.128906.097656-11.214844 3.085938-3.085937 8.074219-3.128906 11.214844-.097656l48 48c2.285156 2.289062 2.972656 5.730469 1.734375 8.71875s-4.15625 4.9375-7.390625 4.9375zm0 0" fill="#a3d4f7"/><path d="m248 320c-2.320312.003906-4.53125-1.003906-6.050781-2.757812-1.523438-1.753907-2.207031-4.082032-1.878907-6.378907l8-56c.503907-3.515625 3.269532-6.277343 6.785157-6.785156l56-8c4.375-.625 8.429687 2.410156 9.054687 6.785156.628906 4.375-2.40625 8.429688-6.78125 9.058594l-50.066406 7.148437-7.152344 50.066407c-.5625 3.9375-3.933594 6.859375-7.910156 6.863281zm0 0" fill="#a3d4f7"/><path d="m40 360 64-16 16-64-64 16zm0 0" fill="#b7f9fe"/><path d="m40 368c-2.464844 0-4.789062-1.136719-6.308594-3.078125-1.515625-1.941406-2.050781-4.476563-1.453125-6.867187l16-64c.71875-2.863282 2.960938-5.101563 5.824219-5.816407l64-16c2.726562-.679687 5.609375.121094 7.597656 2.109375 1.984375 1.988282 2.78125 4.871094 2.101563 7.597656l-16 64c-.71875 2.863282-2.960938 5.101563-5.824219 5.816407l-64 16c-.632812.15625-1.285156.238281-1.9375.238281zm22.59375-65.398438-11.601562 46.398438 46.398437-11.601562 11.601563-46.398438zm0 0" fill="#a3d4f7"/><path d="m120 288c-3.234375 0-6.152344-1.949219-7.390625-4.9375s-.550781-6.429688 1.734375-8.71875l48-48c3.140625-3.03125 8.128906-2.988281 11.214844.097656 3.085937 3.085938 3.128906 8.074219.097656 11.214844l-48 48c-1.5 1.5-3.535156 2.34375-5.65625 2.34375zm0 0" fill="#a3d4f7"/><path d="m152 320c-3.976562-.003906-7.347656-2.925781-7.910156-6.863281l-7.152344-50.066407-50.066406-7.148437c-4.375-.628906-7.410156-4.683594-6.78125-9.058594.625-4.375 4.679687-7.410156 9.054687-6.785156l56 8c3.515625.507813 6.28125 3.269531 6.785157 6.785156l8 56c.328124 2.296875-.355469 4.625-1.878907 6.378907-1.519531 1.753906-3.730469 2.761718-6.050781 2.757812zm0 0" fill="#a3d4f7"/><path d="m360 40-64 16-16 64 64-16zm0 0" fill="#b7f9fe"/><path d="m280 128c-2.464844 0-4.789062-1.136719-6.308594-3.078125-1.515625-1.941406-2.050781-4.476563-1.453125-6.867187l16-64c.71875-2.863282 2.960938-5.101563 5.824219-5.816407l64-16c2.726562-.679687 5.609375.121094 7.597656 2.109375 1.984375 1.988282 2.78125 4.871094 2.101563 7.597656l-16 64c-.71875 2.863282-2.960938 5.101563-5.824219 5.816407l-64 16c-.632812.15625-1.285156.238281-1.9375.238281zm22.59375-65.398438-11.601562 46.398438 46.398437-11.601562 11.601563-46.398438zm0 0" fill="#a3d4f7"/><path d="m232 176c-3.234375 0-6.152344-1.949219-7.390625-4.9375s-.550781-6.429688 1.734375-8.71875l48-48c3.140625-3.03125 8.128906-2.988281 11.214844.097656 3.085937 3.085938 3.128906 8.074219.097656 11.214844l-48 48c-1.5 1.5-3.535156 2.34375-5.65625 2.34375zm0 0" fill="#a3d4f7"/><path d="m312 160c-.382812 0-.765625-.027344-1.144531-.078125l-56-8c-3.515625-.507813-6.28125-3.269531-6.785157-6.785156l-8-56c-.625-4.375 2.410157-8.429688 6.785157-9.058594 4.375-.625 8.429687 2.410156 9.054687 6.785156l7.152344 50.066407 50.066406 7.148437c4.15625.59375 7.148438 4.300781 6.851563 8.488281s-3.78125 7.433594-7.980469 7.433594zm0 0" fill="#a3d4f7"/><path d="m40 40 64 16 16 64-64-16zm0 0" fill="#b7f9fe"/><path d="m120 128c-.652344 0-1.304688-.082031-1.9375-.238281l-64-16c-2.863281-.714844-5.105469-2.953125-5.824219-5.816407l-16-64c-.679687-2.726562.117188-5.609374 2.101563-7.597656 1.988281-1.988281 4.871094-2.789062 7.597656-2.109375l64 16c2.863281.714844 5.105469 2.953125 5.824219 5.816407l16 64c.597656 2.390624.0625 4.925781-1.453125 6.867187-1.519532 1.941406-3.84375 3.078125-6.308594 3.078125zm-57.40625-30.601562 46.398438 11.601562-11.601563-46.398438-46.398437-11.601562zm0 0" fill="#a3d4f7"/><path d="m168 176c-2.121094 0-4.15625-.84375-5.65625-2.34375l-48-48c-3.03125-3.140625-2.988281-8.128906.097656-11.214844 3.085938-3.085937 8.074219-3.128906 11.214844-.097656l48 48c2.285156 2.289062 2.972656 5.730469 1.734375 8.71875s-4.15625 4.9375-7.390625 4.9375zm0 0" fill="#a3d4f7"/><path d="m88 160c-4.199219 0-7.683594-3.246094-7.980469-7.433594s2.695313-7.894531 6.851563-8.488281l50.066406-7.148437 7.152344-50.066407c.625-4.375 4.679687-7.410156 9.054687-6.785156 4.375.628906 7.410157 4.683594 6.785157 9.058594l-8 56c-.503907 3.515625-3.269532 6.277343-6.785157 6.785156l-56 8c-.378906.050781-.761719.078125-1.144531.078125zm0 0" fill="#a3d4f7"/><path d="m248 200c0 26.507812-21.492188 48-48 48s-48-21.492188-48-48 21.492188-48 48-48 48 21.492188 48 48zm0 0" fill="#b7f9fe"/><path d="m200 256c-30.929688 0-56-25.070312-56-56s25.070312-56 56-56 56 25.070312 56 56c-.035156 30.914062-25.085938 55.964844-56 56zm0-96c-22.089844 0-40 17.910156-40 40s17.910156 40 40 40 40-17.910156 40-40c-.027344-22.082031-17.917969-39.972656-40-40zm0 0" fill="#a3d4f7"/></svg>