<?xml version="1.0" encoding="iso-8859-1"?>
<svg version="1.1" id="Capa_1" xmlns="http://www.w3.org/2000/svg" xmlns:xlink="http://www.w3.org/1999/xlink" x="0px" y="0px"
	 viewBox="0 0 512 512" style="enable-background:new 0 0 512 512;" xml:space="preserve">
<g>
	<path d="M298.667,298.667c17.643,0,32-14.357,32-32c0-17.643-14.357-32-32-32c-17.643,0-32,14.357-32,32
		C266.667,284.309,281.024,298.667,298.667,298.667z M298.667,256c5.867,0,10.667,4.779,10.667,10.667s-4.8,10.667-10.667,10.667
		c-5.867,0-10.667-4.779-10.667-10.667S292.8,256,298.667,256z"/>
	<path d="M448,490.667h-32v-480C416,4.779,411.221,0,405.333,0H106.667c-0.597,0-1.131,0.256-1.707,0.341
		c-0.555,0.085-1.088,0.149-1.621,0.32c-0.939,0.32-1.749,0.789-2.56,1.344c-0.32,0.213-0.704,0.277-1.003,0.533
		c-0.107,0.085-0.149,0.213-0.256,0.32c-0.768,0.704-1.365,1.579-1.899,2.496c-0.213,0.341-0.512,0.619-0.661,0.981
		C96.363,7.68,96,9.109,96,10.667v480H64c-5.888,0-10.667,4.779-10.667,10.667C53.333,507.221,58.112,512,64,512h42.667
		c0.576,0,1.173-0.043,1.749-0.149l256-42.667c5.141-0.853,8.917-5.312,8.917-10.517V53.333c0-5.227-3.776-9.664-8.917-10.517
		L235.541,21.333h159.125v480c0,5.888,4.779,10.667,10.667,10.667H448c5.888,0,10.667-4.779,10.667-10.667
		C458.667,495.445,453.888,490.667,448,490.667z M352,62.357v387.264l-234.667,39.125V23.253L352,62.357z"/>
</g>
</svg>
