<svg xmlns="http://www.w3.org/2000/svg" viewBox="0 0 508.16 508.16">
    <g>
        <path d="M504.18,13.67c-0.14-0.001-0.281,0.006-0.42,0.02H4c-2.209,0-4,1.791-4,4v47.28c0,2.209,1.791,4,4,4h19.72l-13.44,42.04
		c-0.685,2.1,0.463,4.358,2.563,5.043c0.399,0.13,0.817,0.197,1.237,0.197h9.64l-13.44,42.04c-0.685,2.1,0.463,4.358,2.563,5.043
		c0.399,0.13,0.817,0.197,1.237,0.197h9.64l-13.44,42.04c-0.685,2.1,0.463,4.358,2.563,5.043c0.399,0.13,0.817,0.197,1.237,0.197
		h9.64l-13.44,42.04c-0.685,2.1,0.463,4.358,2.563,5.043c0.399,0.13,0.817,0.197,1.237,0.197h9.64l-13.44,42.08
		c-0.389,1.208-0.181,2.529,0.56,3.56c0.755,1.034,1.96,1.643,3.24,1.64h9.64l-13.44,42.08c-0.389,1.208-0.181,2.529,0.56,3.56
		c0.755,1.034,1.96,1.643,3.24,1.64h9.64l-13.44,42.08c-0.389,1.208-0.181,2.529,0.56,3.56c0.755,1.034,1.96,1.643,3.24,1.64h9.64
		l-13.44,42.16c-0.389,1.208-0.181,2.529,0.56,3.56c0.755,1.034,1.96,1.643,3.24,1.64h9.64l-13.44,42
		c-0.389,1.208-0.181,2.529,0.56,3.56c0.755,1.034,1.96,1.643,3.24,1.64h479.8c1.28,0.003,2.485-0.606,3.24-1.64
		c0.741-1.031,0.949-2.352,0.56-3.56l-13.44-42.08h9.64c1.28,0.003,2.485-0.606,3.24-1.64c0.741-1.031,0.949-2.352,0.56-3.56
		l-13.44-42.08h9.64c1.28,0.003,2.485-0.606,3.24-1.64c0.741-1.031,0.949-2.352,0.56-3.56l-13.44-42.08h9.64
		c1.28,0.003,2.485-0.606,3.24-1.64c0.741-1.031,0.949-2.352,0.56-3.56l-13.44-42.08h9.64c1.28,0.003,2.485-0.606,3.24-1.64
		c0.741-1.031,0.949-2.352,0.56-3.56l-13.64-42.08h9.84c2.206,0.11,4.084-1.59,4.194-3.796c0.024-0.489-0.041-0.978-0.194-1.444
		l-13.44-42.04h9.44c2.206,0.11,4.084-1.59,4.194-3.796c0.024-0.489-0.041-0.978-0.194-1.444l-13.44-42.04h9.44
		c2.206,0.11,4.084-1.59,4.194-3.796c0.024-0.489-0.041-0.978-0.194-1.444l-13.44-42.04h9.44c2.206,0.11,4.084-1.59,4.194-3.796
		c0.024-0.489-0.041-0.978-0.194-1.444l-13.44-42.04h19.72c2.209,0,4-1.791,4-4V17.69C508.171,15.481,506.389,13.681,504.18,13.67z
		 M99.08,486.49H19.56l12.56-39.28h66.96V486.49z M99.08,439.21H19.56l12.56-39.28h66.96V439.21z M99.08,391.93H19.56l12.56-39.28
		h66.96V391.93z M99.08,344.65H19.56l12.56-39.28h66.96V344.65z M99.08,297.37H19.56l12.56-39.28h66.96V297.37z M99.08,250.09
		H19.56l12.56-39.28h66.96V250.09z M99.08,202.81H19.56l12.56-39.28h66.96V202.81z M99.08,155.53H19.56l12.56-39.28h66.96V155.53z
		 M99.08,108.25H19.56l12.56-39.28h66.96V108.25z M125.88,486.49h-18.8v-39.28h18.8V486.49z M125.88,439.21h-18.8v-39.28h18.8
		V439.21z M125.88,391.93h-18.8v-39.28h18.8V391.93z M125.88,344.65h-18.8v-39.28h18.8V344.65z M125.88,297.37h-18.8v-39.28h18.8
		V297.37z M125.88,250.09h-18.8v-39.28h18.8V250.09z M125.88,202.81h-18.8v-39.28h18.8V202.81z M125.88,155.53h-18.8v-39.28h18.8
		V155.53z M126.04,108.25h-18.96V68.97h18.96V108.25z M373.88,486.49h-240v-39.28h240V486.49z M133.88,439.21v-39.28h239.68v39.28
		H133.88z M373.88,391.93h-240v-39.28h240V391.93z M373.88,344.65h-240v-39.28h240V344.65z M373.88,297.37h-240v-39.28h240V297.37z
		 M373.88,250.09h-240v-39.28h240V250.09z M373.88,202.81h-240v-39.28h240V202.81z M373.88,155.53h-240v-39.28h240V155.53z
		 M133.88,108.25V68.97h239.84v39.28H133.88z M400.52,486.49h-18.64l-0.32-39.28h18.96V486.49z M400.52,439.21h-18.96v-39.28h18.96
		V439.21z M400.52,391.93h-18.96v-39.28h18.96V391.93z M400.52,344.65h-18.96v-39.28h18.96V344.65z M400.84,297.37h-18.96v-39.28
		h18.96V297.37z M400.84,250.09h-18.96v-39.28h18.96V250.09z M400.84,202.81h-18.96v-39.28h18.96V202.81z M400.84,155.53h-18.96
		v-39.28h18.96V155.53z M381.88,108.25V68.97h18.8v39.28H381.88z M445.44,116.25v39.28h-36.92v-39.28H445.44z M408.68,108.25V68.97
		h36.92v39.28H408.68z M445.44,163.53v39.28h-36.92v-39.28H445.44z M445.44,210.81v39.28h-36.92v-39.28H445.44z M445.44,258.09
		v39.28h-36.92v-39.28H445.44z M445.44,305.37v39.28h-36.76l-0.16-39.28H445.44z M488.12,486.49h-79.44v-39.28h66.96L488.12,486.49
		z M488.12,439.21h-79.44v-39.28h66.96L488.12,439.21z M488.12,391.93h-79.44v-39.28h36.92v17.44c0,2.209,1.791,4,4,4
		c2.209,0,4-1.791,4-4v-17.44h22.04L488.12,391.93z M488.12,344.65h-34.6v-39.28h22.04L488.12,344.65z M488.12,297.37h-34.6v-39.28
		h22.04L488.12,297.37z M488.12,250.09h-34.6v-39.28h22.04L488.12,250.09z M488.12,202.81h-34.6v-39.28h22.04L488.12,202.81z
		 M488.12,155.53h-34.6v-39.28h22.04L488.12,155.53z M488.12,108.25h-34.6V68.97h22.04L488.12,108.25z M499.68,60.97H8V21.69
		h491.76L499.68,60.97z" fill="currentColor"/>
        <path d="M454.32,37.33h-13.76c-2.209,0-4,1.791-4,4c0,2.209,1.791,4,4,4h13.76c2.209,0,4-1.791,4-4
		C458.32,39.121,456.529,37.33,454.32,37.33z" fill="currentColor"/>
        <path d="M414.84,37.33h-96c-2.209,0-4,1.791-4,4c0,2.209,1.791,4,4,4h96c2.209,0,4-1.791,4-4
		C418.84,39.121,417.049,37.33,414.84,37.33z" fill="currentColor"/>
    </g>
</svg>
