<?xml version="1.0" encoding="iso-8859-1"?>
<svg version="1.1" id="Capa_1" xmlns="http://www.w3.org/2000/svg" xmlns:xlink="http://www.w3.org/1999/xlink" x="0px" y="0px"
	 viewBox="0 0 24.986 24.986" style="enable-background:new 0 0 24.986 24.986;" xml:space="preserve">
<g>
	<path style="fill:currentColor;" d="M17.548,17.961l-0.771-0.769c0,0-1.225,1.305-1.304,1.305c-0.081,0-1.308-1.305-1.308-1.305
		l-0.771,0.769c0,0,1.306,1.198,1.306,1.308c0,0.106-1.306,1.308-1.306,1.308l0.771,0.767c0,0,1.217-1.305,1.308-1.305
		c0.089,0,1.304,1.305,1.304,1.305l0.771-0.767c0,0-1.307-1.218-1.307-1.308C16.242,19.177,17.548,17.961,17.548,17.961z"/>
	<path style="fill:currentColor;" d="M15.472,14.435c-2.667,0-4.83,2.164-4.83,4.831s2.163,4.83,4.83,4.83s4.83-2.163,4.83-4.83
		S18.139,14.435,15.472,14.435z M15.472,23.348c-2.252,0-4.081-1.828-4.081-4.082c0-2.259,1.829-4.081,4.081-4.081
		c2.254,0,4.082,1.822,4.082,4.081C19.554,21.52,17.726,23.348,15.472,23.348z"/>
	<circle style="fill:currentColor;" cx="10.06" cy="2.207" r="2.207"/>
	<path style="fill:currentColor;" d="M10.2,20.476v3.26l0.009,0.009c0.009,0.688,0.565,1.238,1.251,1.238
		c0.643,0,1.167-0.487,1.236-1.11c-0.083-0.052-0.173-0.093-0.253-0.146C11.33,22.976,10.517,21.821,10.2,20.476z"/>
	<path style="fill:currentColor;" d="M12.455,14.724c0.08-0.057,0.168-0.097,0.253-0.146l-0.002-6.687h0.606v5.047
		c0,0.003,0,0.006,0,0.007c0,0.516,0.417,0.932,0.932,0.932c0.516,0,0.933-0.416,0.933-0.932c0-0.001,0-0.004,0-0.007V7.51
		c-0.206-2.42-3.013-2.385-3.013-2.385H7.74C4.572,5.185,4.685,7.51,4.685,7.51l-0.001,5.428h0.003
		c-0.002,0.014-0.002,0.025-0.002,0.04c0,0.515,0.417,0.932,0.932,0.932c0.514,0,0.929-0.417,0.929-0.932
		c0-0.015,0-0.025-0.001-0.04h0.001V7.914H7.13L7.123,23.725c0,0.693,0.562,1.261,1.257,1.261s1.257-0.565,1.257-1.261V13.523
		h0.562v4.457C10.517,16.629,11.336,15.474,12.455,14.724z"/>
</g>

</svg>
