<svg height="58pt" viewBox="0 -1 58.9 58" width="58pt" xmlns="http://www.w3.org/2000/svg"><g fill="#fdd020"><path d="m51.898438 19.449219c0 7.179687-5.820313 13-13 13-7.179688 0-13-5.820313-13-13 0-7.179688 5.820312-13 13-13 7.179687 0 13 5.820312 13 13zm0 0"/><path d="m57.898438 20.449219h-2c-.597657 0-1-.398438-1-1 0-.597657.402343-1 1-1h2c.601562 0 1 .402343 1 1 0 .601562-.398438 1-1 1zm0 0"/><path d="m50.898438 8.449219c-.296876 0-.5-.097657-.699219-.300781-.398438-.398438-.398438-1 0-1.398438l2-2c.402343-.398438 1-.398438 1.402343 0 .398438.398438.398438 1 0 1.398438l-2 2c-.203124.203124-.402343.300781-.703124.300781zm0 0"/></g><path d="m45.300781 44.449219c5.699219.101562 10.5-4.398438 10.597657-10.097657.101562-5.703124-4.398438-10.5-10.097657-10.601562-.199219 0-.300781 0-.5 0-.699219 0-1.402343.101562-2.101562.199219-.898438-4-4.398438-6.800781-8.5-6.800781-1.300781 0-2.5.300781-3.597657.800781-2.300781-6-9.101562-8.898438-15-6.597657-4.402343 1.699219-7.300781 5.898438-7.402343 10.597657 0 1.300781.199219 2.601562.699219 3.800781-5.199219 0-9.398438 4.300781-9.398438 9.5s4.199219 9.199219 9.398438 9.199219h.203124" fill="#d0dad9"/><path d="m26.898438 30.449219h-8l-4 12h9l-2.796876 14 11.796876-18h-8zm0 0" fill="#ffa754"/><path d="m40.898438 52.449219c0 2.199219-1.796876 4-4 4-2.199219 0-4-1.800781-4-4 0-3 4-10 4-10s4 7 4 10zm0 0" fill="#60a2d7"/><path d="m37.898438 1.449219c0 .554687-.445313 1-1 1-.550782 0-1-.445313-1-1 0-.550781.449218-1 1-1 .554687 0 1 .449219 1 1zm0 0" fill="#fdd020"/></svg>