<?xml version="1.0" encoding="iso-8859-1"?>
<svg version="1.1" id="Capa_1" xmlns="http://www.w3.org/2000/svg" xmlns:xlink="http://www.w3.org/1999/xlink" x="0px" y="0px"
	 viewBox="0 0 512 512" style="enable-background:new 0 0 512 512;" xml:space="preserve">
<g>
	<path d="M448,490.667h-32v-480C416,4.779,411.221,0,405.333,0H106.667C100.779,0,96,4.779,96,10.667v480H64
		c-5.888,0-10.667,4.779-10.667,10.667C53.333,507.221,58.112,512,64,512h384c5.888,0,10.667-4.779,10.667-10.667
		C458.667,495.445,453.888,490.667,448,490.667z M394.667,490.667H117.333V21.333h277.333V490.667z"/>
	<path d="M341.333,277.333c17.643,0,32-14.357,32-32c0-17.643-14.357-32-32-32c-17.643,0-32,14.357-32,32
		C309.333,262.976,323.691,277.333,341.333,277.333z M341.333,234.667c5.888,0,10.667,4.779,10.667,10.667
		S347.221,256,341.333,256s-10.667-4.779-10.667-10.667S335.445,234.667,341.333,234.667z"/>
</g>
</svg>
