<?xml version="1.0" encoding="iso-8859-1"?>
<!-- Generator: Adobe Illustrator 19.0.0, SVG Export Plug-In . SVG Version: 6.00 Build 0)  -->
<svg version="1.1" id="Layer_1" xmlns="http://www.w3.org/2000/svg" xmlns:xlink="http://www.w3.org/1999/xlink" x="0px" y="0px"
	 viewBox="0 0 452.498 452.498" style="enable-background:new 0 0 452.498 452.498;" xml:space="preserve">
<g>
	<g>
		<path d="M301.317,295.155c-51.157-10.946-87.714-56.144-87.723-108.459c-0.047-7.853,0.726-15.689,2.304-23.381
			c1.901-8.216,4.765-16.179,8.533-23.723c1.395-2.716,1.232-5.97-0.427-8.533c-21.845-35.413-48.213-74.752-84.48-103.68
			c-4.364-3.55-8.922-6.855-13.653-9.899c-4.312-2.795-8.885-5.167-13.653-7.083c-1.657-0.712-3.497-0.881-5.257-0.482
			c-4.596,1.043-7.477,5.614-6.434,10.21l1.024,4.523c1.109,4.864,2.219,9.728,3.072,14.763c1.389,7.465,2.216,15.024,2.475,22.613
			c0,1.963,0,3.925,0,5.973c-0.148,44.426-18.682,86.808-51.2,117.077c-16.258,13.999-29.997,30.682-40.619,49.323
			c-17.805,34.961-20.157,75.78-6.485,112.555c19.856,51.418,65.996,88.056,120.576,95.744h1.28c4.713,0.707,9.106-2.54,9.813-7.253
			c0.707-4.713-2.541-9.106-7.253-9.813c-19.848-5.714-35.981-20.212-43.776-39.339c-6.038-16.156-5.048-34.1,2.731-49.493
			c5.059-8.581,11.487-16.277,19.029-22.784c19.957-18.567,31.301-44.592,31.317-71.851c0-1.451,0-2.731,0-3.669
			c0-1.707,0-3.413,0-5.12c6.598,5.465,12.349,11.878,17.067,19.029c8.239,12.719,12.707,27.513,12.885,42.667v0.683
			c0.02,16.579-5.076,32.76-14.592,46.336c-0.148,0.214-0.286,0.434-0.414,0.66c-2.319,4.103-0.873,9.309,3.23,11.628
			c8.888,5.729,20.175,6.218,29.525,1.28c10.16-6.322,17.726-16.067,21.333-27.477c8.065,10.289,12.531,22.939,12.715,36.011
			c-0.579,27.882-18.718,52.352-45.227,61.013c-3.963,1.37-6.343,5.415-5.617,9.544c0.817,4.642,5.242,7.742,9.883,6.925
			c70.656-12.715,121.941-69.717,124.757-137.984C308.149,299.595,305.32,296.014,301.317,295.155z M229.295,406.259
			c7.886-12.555,12.084-27.073,12.117-41.899c-0.821-23.126-11.093-44.903-28.416-60.245c-1.428-1.413-3.309-2.276-5.311-2.439
			c-4.697-0.381-8.814,3.117-9.196,7.815c-0.939,11.435-7.68,26.624-16.213,31.317c-1.294,0.702-2.716,1.137-4.181,1.28
			c7.582-14.175,11.539-30.005,11.52-46.08v-1.024c-0.155-18.482-5.571-36.538-15.616-52.053
			c-9.873-15.163-23.478-27.534-39.509-35.925c-2.034-1.077-4.417-1.287-6.608-0.582c-4.486,1.444-6.953,6.251-5.509,10.737
			c2.295,7.122,3.56,14.536,3.755,22.016c0,0.853,0,1.792,0,2.731c0.029,22.668-9.405,44.32-26.027,59.733
			c-8.979,7.826-16.567,17.117-22.443,27.477c-5.518,11.026-8.437,23.169-8.533,35.499c0.02,15.652,4.682,30.946,13.397,43.947
			c-26.603-15.122-47.095-39.055-57.941-67.669c-12.014-32.315-9.94-68.186,5.717-98.901c9.76-16.894,22.344-31.989,37.205-44.629
			c35.887-33.499,56.305-80.359,56.405-129.451c0-2.219,0-4.523,0-6.571c-0.285-8.362-1.198-16.692-2.731-24.917v-1.536
			c2.56,1.764,5.063,3.669,7.509,5.717c32.939,26.197,57.685,62.72,78.251,95.488c-3.264,7.47-5.779,15.245-7.509,23.211
			c-1.936,9.002-2.909,18.184-2.901,27.392c-0.012,57.557,38.394,108.044,93.867,123.392
			C285.951,349.854,263.405,385.342,229.295,406.259z"/>
	</g>
</g>
<g>
	<g>
		<path d="M324.527,58.697c-49.399,0.039-94.366,28.501-115.541,73.131c-4.253,8.752-7.461,17.975-9.557,27.477
			c-1.936,9.002-2.909,18.184-2.901,27.392c-0.121,39.289,17.928,76.428,48.896,100.608c22.553,17.739,50.411,27.385,79.104,27.392
			c28.708,0.087,56.597-9.57,79.104-27.392c30.846-24.262,48.858-61.334,48.867-100.579
			C452.514,116.033,395.22,58.713,324.527,58.697z M324.527,297.63c-7.802-0.006-15.582-0.836-23.211-2.475
			c-51.157-10.946-87.714-56.144-87.723-108.459c-0.099-7.964,0.645-15.915,2.219-23.723c1.899-8.244,4.763-16.235,8.533-23.808
			c18.353-38.703,57.347-63.382,100.181-63.403c61.267,0,110.933,49.667,110.933,110.933S385.794,297.63,324.527,297.63z"/>
	</g>
</g>
<g>
	<g>
		<path d="M354.565,106.91c-3.079-3.33-7.412-5.217-11.947-5.205h-36.267c-4.535-0.012-8.868,1.876-11.947,5.205
			c-2.888,3.111-4.342,7.288-4.011,11.52l6.4,79.616c0.837,8.16,7.755,14.338,15.957,14.251h23.552
			c8.086,0.105,14.958-5.885,15.957-13.909l6.4-79.957C358.969,114.186,357.483,110.007,354.565,106.91z M335.45,195.23h-21.675
			l-6.315-76.8h34.133L335.45,195.23z"/>
	</g>
</g>
<g>
	<g>
		<path d="M328.965,229.363h-8.96c-11.621,0.047-21.031,9.456-21.077,21.077v9.045c0.047,11.621,9.456,21.031,21.077,21.077h9.045
			c11.654-0.047,21.077-9.508,21.077-21.163v-8.96C350.08,238.786,340.619,229.363,328.965,229.363z M333.061,259.401
			c-0.045,2.196-1.815,3.965-4.011,4.011h-8.96c-2.196-0.045-3.965-1.815-4.011-4.011v-8.96c0.045-2.196,1.815-3.965,4.011-4.011
			h8.96c2.196,0.045,3.965,1.815,4.011,4.011V259.401z"/>
	</g>
</g>
<g>
</g>
<g>
</g>
<g>
</g>
<g>
</g>
<g>
</g>
<g>
</g>
<g>
</g>
<g>
</g>
<g>
</g>
<g>
</g>
<g>
</g>
<g>
</g>
<g>
</g>
<g>
</g>
<g>
</g>
</svg>
