<?xml version="1.0" encoding="iso-8859-1"?>
<!-- Generator: Adobe Illustrator 19.0.0, SVG Export Plug-In . SVG Version: 6.00 Build 0)  -->
<svg version="1.1" id="Layer_1" xmlns="http://www.w3.org/2000/svg" xmlns:xlink="http://www.w3.org/1999/xlink" x="0px" y="0px"
	 viewBox="0 0 512.006 512.006" style="enable-background:new 0 0 512.006 512.006;" xml:space="preserve">
<path style="fill:#C52828;" d="M502.379,211.249c0,74.656-60.52,135.176-135.176,135.176c-6.469,0.01-12.919-0.473-19.311-1.448
	c-66.487-9.598-115.837-66.555-115.866-133.728c-0.019-67.212,49.349-124.227,115.866-133.825
	c6.402-0.888,12.851-1.342,19.311-1.352C441.859,76.072,502.379,136.593,502.379,211.249z"/>
<path style="fill:#F44335;" d="M463.757,211.249c-0.029,67.173-49.378,124.131-115.865,133.728
	c-66.487-9.598-115.837-66.555-115.866-133.728c-0.019-67.212,49.349-124.227,115.866-133.825
	C414.408,87.022,463.767,144.037,463.757,211.249z"/>
<g>
	<path style="fill:#FDD834;" d="M380.527,230.56h-26.649c-4.258,0.126-7.898-3.013-8.4-7.242l-7.242-90.472
		c-0.212-4.47,3.235-8.275,7.705-8.497c0.232-0.01,0.463-0.01,0.695,0h41.036c4.48-0.164,8.236,3.331,8.4,7.802
		c0.01,0.232,0.01,0.463,0,0.695l-7.242,90.472C388.329,227.499,384.737,230.637,380.527,230.56z"/>
	<path style="fill:#FDD834;" d="M362.085,269.181h10.235c7.84,0,14.194,6.353,14.194,14.194v10.235
		c0,7.84-6.353,14.194-14.194,14.194h-10.235c-7.84,0-14.194-6.353-14.194-14.194v-10.235
		C347.892,275.535,354.245,269.181,362.085,269.181z"/>
</g>
<path style="fill:#F57C00;" d="M308.015,332.714c-8.642-4.19-16.801-9.298-24.332-15.256c-9.665-7.637-18.278-16.54-25.587-26.456
	c-16.994-23.115-26.137-51.068-26.07-79.754c-0.01-9.742,1.033-19.446,3.09-28.966c2.066-10.003,5.311-19.726,9.655-28.966
	c-24.428-39.201-50.691-78.113-85.547-108.334c-2.607-2.221-5.214-4.442-7.917-6.566c-4.596-3.804-9.395-7.348-14.387-10.621
	c-4.364-2.819-8.989-5.214-13.807-7.145c1.641,7.338,3.476,14.773,4.731,22.208c1.67,8.893,2.675,17.901,2.993,26.939
	c0,2.317,0,4.731,0,7.145c-0.193,52.902-22.198,103.381-60.829,139.521c-17.496,14.956-32.326,32.78-43.836,52.719
	C7.237,306.49,4.853,350.046,19.606,389.199c5.33,14.435,12.813,27.982,22.208,40.167c26.108,33.543,64.151,55.722,106.21,61.891
	c-18.046-5.59-33.765-16.916-44.801-32.249c-1.342-1.786-2.568-3.65-3.669-5.6c-2.578-4.219-4.741-8.69-6.469-13.325
	c-7.705-20.836-6.344-43.942,3.766-63.726c6.199-10.689,14.126-20.286,23.463-28.387c20.605-19.205,32.346-46.086,32.442-74.25
	c0-1.352,0-2.607,0-3.862c-0.29-9.221-1.883-18.355-4.731-27.132c3.756,1.979,7.396,4.171,10.911,6.566
	c12.04,8.13,22.323,18.606,30.222,30.801c9.018,13.942,14.454,29.893,15.835,46.443c0,2.414,0,4.828,0,7.338v1.062
	c0.01,20.73-6.363,40.958-18.249,57.933c22.98,13.035,38.622-8.593,44.994-28.966c1.303-4.181,2.144-8.487,2.51-12.842
	c17.418,15.777,27.837,37.84,28.966,61.312c0,1.738,0,3.476,0,5.214c-2.704,33.678-25.346,62.451-57.45,72.995
	c73.353-11.789,128.717-72.889,133.245-147.053C328.262,341.23,317.854,337.59,308.015,332.714z"/>
<path style="fill:#FF9801;" d="M263.117,417.489c0-1.738,0-3.476,0-5.214c-1.13-23.472-11.548-45.535-28.966-61.312
	c-0.367,4.355-1.207,8.661-2.51,12.842c-5.986,20.47-22.014,42.098-44.994,28.966c11.886-16.974,18.258-37.202,18.249-57.933v-0.966
	c0-2.51,0-4.924,0-7.338c-1.381-16.549-6.817-32.5-15.835-46.443c-7.898-12.195-18.181-22.671-30.222-30.801
	c-10.138-14.966-23.839-27.18-39.877-35.532c2.848,8.777,4.442,17.911,4.731,27.132c0,1.255,0,2.51,0,3.862
	c-0.097,28.165-11.838,55.046-32.442,74.25c-9.298,8.111-17.196,17.698-23.366,28.387c-10.042,19.813-11.336,42.919-3.573,63.726
	c6.711,17.689,19.195,32.587,35.436,42.291c1.101,1.95,2.327,3.814,3.669,5.6c10.93,15.265,26.514,26.581,44.415,32.249
	c-42.059-6.17-80.102-28.348-106.21-61.892c-9.327-12.204-16.743-25.741-22.014-40.167C4.853,350.046,7.238,306.49,26.172,269.181
	c11.529-20.122,26.417-38.12,44.029-53.202c38.631-36.14,60.636-86.619,60.829-139.521c0-2.414,0-4.828,0-7.145
	c-0.319-9.038-1.323-18.046-2.993-26.939c-1.255-7.435-3.09-14.869-4.731-22.208c4.818,1.931,9.443,4.326,13.807,7.145
	c5.127,3.293,10.061,6.865,14.773,10.718c2.704,2.124,5.311,4.345,7.917,6.566c34.856,30.222,61.119,69.133,85.547,108.334
	c-4.345,9.24-7.589,18.963-9.655,28.966c-2.279,9.626-3.515,19.465-3.669,29.353c-0.068,28.686,9.076,56.639,26.07,79.754
	c7.309,9.916,15.922,18.818,25.587,26.456c7.531,5.957,15.69,11.065,24.332,15.256C302.579,365.07,286.831,394.809,263.117,417.489z
	"/>
<path d="M147.831,500.912h-1.448c-61.756-8.7-113.963-50.15-136.432-108.334c-15.468-41.615-12.813-87.797,7.338-127.355
	c12.021-21.097,27.566-39.964,45.96-55.809c36.797-34.248,57.769-82.207,57.933-132.473c0-2.317,0-4.538,0-6.759
	c-0.29-8.584-1.226-17.138-2.8-25.587c-0.966-5.697-2.221-11.2-3.476-16.704l-1.159-5.117c-1.178-5.204,2.076-10.37,7.28-11.548
	c1.989-0.454,4.075-0.261,5.948,0.541c5.397,2.163,10.573,4.847,15.449,8.014c5.349,3.447,10.515,7.184,15.449,11.2
	c41.036,32.732,70.871,77.244,95.589,117.314c1.873,2.897,2.057,6.585,0.483,9.655c-4.268,8.535-7.502,17.544-9.655,26.842
	c-1.786,8.7-2.655,17.573-2.607,26.456c0.01,59.198,41.374,110.333,99.258,122.721c4.528,0.975,7.734,5.021,7.628,9.655
	c-3.186,77.244-61.216,141.742-141.163,156.129c-5.253,0.927-10.254-2.588-11.181-7.84c-0.821-4.673,1.873-9.25,6.353-10.795
	c29.99-9.8,50.517-37.492,51.174-69.037c-0.212-14.792-5.262-29.102-14.387-40.746c-4.084,12.909-12.639,23.936-24.139,31.091
	c-10.582,5.59-23.347,5.03-33.408-1.448c-4.644-2.626-6.276-8.516-3.659-13.16c0.145-0.261,0.299-0.502,0.473-0.743
	c10.766-15.362,16.53-33.669,16.511-52.429v-0.772c-0.203-17.148-5.253-33.881-14.58-48.277
	c-5.339-8.091-11.847-15.352-19.311-21.532c0,1.931,0,3.862,0,5.793c0,1.062,0,2.51,0,4.152
	c-0.019,30.84-12.851,60.289-35.436,81.299c-8.535,7.367-15.806,16.067-21.532,25.78c-8.806,17.418-9.926,37.724-3.09,56.002
	c8.825,21.638,27.074,38.043,49.533,44.512c5.33,0.801,9.009,5.774,8.207,11.104C158.133,498.035,153.16,501.704,147.831,500.912z
	 M137.113,39.478v1.738c1.738,9.308,2.771,18.732,3.09,28.194c0,2.317,0,4.924,0,7.435c-0.116,55.548-23.212,108.566-63.823,146.473
	c-16.82,14.3-31.052,31.38-42.098,50.498c-17.718,34.75-20.064,75.342-6.469,111.907c12.272,32.375,35.455,59.458,65.561,76.568
	c-9.858-14.715-15.14-32.018-15.159-49.726c0.106-13.952,3.408-27.692,9.655-40.167c6.653-11.722,15.236-22.237,25.394-31.091
	c18.809-17.438,29.478-41.943,29.449-67.588c0-1.062,0-2.124,0-3.09c-0.222-8.468-1.651-16.849-4.248-24.911
	c-1.632-5.079,1.159-10.515,6.237-12.147c2.481-0.801,5.175-0.56,7.473,0.657c18.143,9.491,33.533,23.492,44.705,40.649
	c11.364,17.554,17.496,37.985,17.669,58.898v1.159c0.019,18.191-4.461,36.102-13.035,52.139c1.661-0.164,3.264-0.657,4.731-1.448
	c9.655-5.31,17.283-22.497,18.345-35.436c0.434-5.31,5.088-9.269,10.409-8.844c2.269,0.183,4.393,1.159,6.006,2.761
	c19.601,17.361,31.226,42.001,32.153,68.168c-0.039,16.772-4.789,33.205-13.711,47.408c38.593-23.666,64.103-63.823,69.133-108.817
	c-62.77-17.37-106.22-74.492-106.21-139.618c-0.01-10.418,1.091-20.808,3.283-30.994c1.96-9.018,4.808-17.814,8.497-26.263
	c-23.27-37.077-51.27-78.402-88.541-108.045C142.839,43.63,140.01,41.467,137.113,39.478z"/>
<path d="M367.203,356.081c-32.462-0.01-63.987-10.92-89.506-30.994c-35.04-27.364-55.461-69.384-55.326-113.838
	c-0.01-10.418,1.091-20.808,3.283-30.994c2.375-10.756,6.006-21.184,10.814-31.091c23.965-50.498,74.839-82.699,130.735-82.747
	c79.986,0.019,144.813,64.875,144.803,144.861c-0.01,44.405-20.392,86.349-55.297,113.809
	C431.238,345.247,399.684,356.177,367.203,356.081z M367.203,85.728c-48.47,0.019-92.586,27.943-113.355,71.74
	c-4.268,8.564-7.502,17.612-9.655,26.939c-1.777,8.835-2.626,17.834-2.51,26.842c0.01,59.198,41.374,110.333,99.258,122.721
	c8.632,1.854,17.438,2.79,26.263,2.8c69.326,0,125.521-56.195,125.521-125.521S436.519,85.728,367.203,85.728z"/>
<path d="M380.527,240.215h-26.649c-9.279,0.097-17.109-6.894-18.056-16.125l-7.242-90.085c-0.377-4.789,1.275-9.511,4.538-13.035
	c3.486-3.766,8.391-5.899,13.518-5.89h41.036c5.127-0.01,10.032,2.124,13.518,5.89c3.302,3.505,4.982,8.236,4.635,13.035
	l-7.242,90.472C397.444,233.553,389.671,240.331,380.527,240.215z M355.037,220.904h24.525l6.952-86.899h-38.622L355.037,220.904z"
	/>
<path d="M372.32,317.459h-10.235c-13.151-0.048-23.801-10.698-23.849-23.849v-10.235c0.048-13.151,10.698-23.801,23.849-23.849
	h10.138c13.189,0,23.888,10.66,23.946,23.849v10.138C396.169,306.693,385.5,317.401,372.32,317.459z M362.182,278.837
	c-2.481,0.048-4.49,2.057-4.538,4.538v10.138c0.048,2.481,2.057,4.49,4.538,4.538h10.138c2.481-0.048,4.49-2.057,4.538-4.538
	v-10.138c-0.048-2.481-2.057-4.49-4.538-4.538H362.182z"/>
<g>
</g>
<g>
</g>
<g>
</g>
<g>
</g>
<g>
</g>
<g>
</g>
<g>
</g>
<g>
</g>
<g>
</g>
<g>
</g>
<g>
</g>
<g>
</g>
<g>
</g>
<g>
</g>
<g>
</g>
</svg>
