<?xml version="1.0" encoding="iso-8859-1"?>
<svg version="1.1" id="Layer_1" xmlns="http://www.w3.org/2000/svg" xmlns:xlink="http://www.w3.org/1999/xlink" x="0px" y="0px"
	 viewBox="0 0 512.002 512.002" style="enable-background:new 0 0 512.002 512.002;" xml:space="preserve">
<path style="fill:#C52828;" d="M481.929,324.35c0,65.951-53.464,119.415-119.415,119.415c-5.715,0.009-11.413-0.418-17.059-1.279
	c-58.735-8.478-102.33-58.795-102.356-118.135c-0.017-59.375,43.595-109.742,102.356-118.221c5.655-0.785,11.353-1.186,17.059-1.194
	C428.465,204.935,481.929,258.398,481.929,324.35z"/>
<path style="fill:#F44335;" d="M447.81,324.35c-0.026,59.341-43.621,109.657-102.356,118.135
	c-58.735-8.478-102.33-58.795-102.356-118.135c-0.017-59.375,43.595-109.742,102.356-118.221
	C404.224,214.616,447.827,264.975,447.81,324.35z"/>
<g>
	<path style="fill:#FDD834;" d="M374.285,341.409h-23.542c-3.762,0.111-6.977-2.661-7.421-6.397l-6.397-79.923
		c-0.188-3.949,2.857-7.31,6.807-7.506c0.205-0.009,0.409-0.009,0.614,0h36.251c3.958-0.145,7.276,2.943,7.421,6.892
		c0.009,0.205,0.009,0.409,0,0.614l-6.397,79.923C381.185,338.714,378.012,341.477,374.285,341.409z"/>
	<path style="fill:#FDD834;" d="M357.993,375.527h9.041c6.926,0,12.539,5.612,12.539,12.539v9.041
		c0,6.926-5.612,12.539-12.539,12.539h-9.041c-6.926,0-12.539-5.612-12.539-12.539v-9.041
		C345.454,381.14,351.075,375.527,357.993,375.527z"/>
</g>
<path style="fill:#0377BC;" d="M318.415,435.235c-5.638,8.223-12.069,15.882-19.192,22.859
	c-14.432,14.159-31.466,25.393-50.154,33.095c-19.456,8.112-40.328,12.283-61.413,12.283c-6.875,0.017-13.741-0.435-20.556-1.365
	c-14.048-1.732-27.798-5.374-40.857-10.833c-37.633-15.49-67.759-45.002-84.017-82.311c-8.163-19.03-12.368-39.518-12.368-60.219
	c0.085-24.036,5.937-47.698,17.059-69.005c12.991-23.491,27.227-46.273,42.648-68.237c15.268-22.774,29.513-46.145,44.013-69.346
	l34.119-54.504l7.335-11.771c4.504-7.353,14.117-9.656,21.469-5.143c2.098,1.288,3.864,3.045,5.143,5.143l34.716,55.869
	c-2.644,4.18-5.032,8.53-7.335,12.709c-7.361,13.673-11.31,28.915-11.515,44.439c0.017,13.315,2.738,26.493,8.018,38.725
	c5.203,11.831,12.649,22.552,21.921,31.56c3.147,3.045,6.483,5.894,9.98,8.53c-5.34,9.732-9.246,20.19-11.6,31.048
	c-1.817,8.41-2.738,16.983-2.729,25.589C243.141,373.25,272.978,417.178,318.415,435.235z"/>
<path style="fill:#02A9F4;" d="M277.217,435.235c-5.638,8.223-12.069,15.882-19.192,22.859
	c-14.432,14.159-31.466,25.393-50.154,33.095c-13.05,5.408-26.757,9.05-40.772,10.833c-14.048-1.732-27.798-5.374-40.857-10.833
	c-37.633-15.49-67.759-45.002-84.017-82.311c-8.154-19.004-12.359-39.458-12.368-60.134c0.085-24.036,5.937-47.698,17.059-69.005
	c12.991-23.491,27.227-46.273,42.648-68.237c15.268-22.774,29.513-46.145,44.013-69.346l34.119-54.504
	c9.212,14.671,18.339,29.427,27.465,44.098c-2.644,4.18-5.032,8.53-7.335,12.709c-7.105,13.707-10.824,28.915-10.833,44.354
	c0.017,13.315,2.738,26.493,8.018,38.725c5.203,11.831,12.649,22.552,21.921,31.56c3.147,3.045,6.483,5.894,9.98,8.53
	c-5.587,9.724-9.724,20.215-12.283,31.133c-1.817,8.41-2.738,16.983-2.729,25.589C201.943,373.25,231.78,417.178,277.217,435.235z"
	/>
<path style="fill:#0377BC;" d="M411.388,144.545c-8.41-15.106-17.639-29.734-27.636-43.842
	c-9.894-14.586-19.192-29.598-28.489-44.525L328.395,13.53c-3.037-4.708-9.323-6.065-14.031-3.028
	c-1.211,0.785-2.243,1.817-3.028,3.028l-12.794,20.215l-14.074,22.433c-9.297,14.927-18.595,29.939-28.489,44.525
	c-6.994,10.236-13.989,20.471-20.301,31.133c-2.644,4.18-5.032,8.53-7.335,12.709c-7.105,13.707-10.824,28.915-10.833,44.354
	c0.145,26.493,10.935,51.818,29.939,70.284c3.147,3.045,6.483,5.894,9.98,8.53c17.264-32.046,48.192-54.462,84.017-60.902
	c6.952-1.271,14.006-1.902,21.068-1.877c5.186,0.009,10.372,0.324,15.524,0.938c13.827,1.834,27.218,6.082,39.578,12.539
	C425.462,193.949,423.219,167.353,411.388,144.545z"/>
<path style="fill:#02A9F4;" d="M379.573,188.899c0.017,5.723-0.503,11.43-1.535,17.059c-5.152-0.648-10.338-0.989-15.524-1.024
	c-7.063-0.026-14.117,0.606-21.068,1.877c-35.824,6.44-66.753,28.856-84.017,60.902c-3.497-2.636-6.832-5.485-9.98-8.53
	c-31.099-29.743-38.878-76.417-19.106-114.638c2.303-4.35,4.691-8.53,7.335-12.709c6.312-10.662,13.306-20.898,20.301-31.133
	c9.894-14.586,19.192-29.598,28.489-44.525l14.074-22.433l14.074,22.433c9.297,14.927,18.595,29.939,28.489,44.525
	c9.997,14.108,19.226,28.736,27.636,43.842C375.854,158.252,379.564,173.46,379.573,188.899z"/>
<path d="M187.656,512.002c-22.194,0.034-44.166-4.342-64.655-12.88c-39.68-16.309-71.47-47.425-88.623-86.746
	c-8.641-20.096-13.084-41.753-13.05-63.631c-0.026-25.367,6.03-50.376,17.656-72.928c12.061-21.989,25.307-43.322,39.663-63.887
	l3.412-5.032c12.027-17.998,23.627-36.677,34.886-54.76L167.1,71.531c6.986-11.353,21.861-14.893,33.214-7.898
	c3.216,1.979,5.92,4.683,7.898,7.898l17.059,27.38l17.827,28.404c1.877,2.849,1.877,6.534,0,9.383
	c-2.559,4.009-4.777,8.018-6.994,12.112c-6.5,12.368-9.954,26.118-10.065,40.089c0.009,12.172,2.508,24.224,7.335,35.398
	c4.777,10.799,11.583,20.591,20.045,28.83c2.909,2.798,5.988,5.425,9.212,7.847c3.369,2.559,4.35,7.208,2.303,10.918
	c-4.947,9.016-8.564,18.697-10.747,28.745c-1.689,7.788-2.55,15.737-2.559,23.712c0.009,45.429,27.721,86.26,69.943,103.038
	c4.393,1.706,6.559,6.653,4.853,11.046c-0.239,0.614-0.554,1.203-0.93,1.749c-5.962,8.683-12.769,16.769-20.301,24.139
	c-15.2,14.952-33.163,26.8-52.884,34.886C231.823,507.711,209.842,512.061,187.656,512.002z M187.656,76.99
	c-2.482-0.017-4.785,1.279-6.056,3.412l-50.154,80.69c-11.344,18.168-23.03,37.019-35.227,55.187l-3.412,5.032
	c-14.006,20.053-26.937,40.84-38.725,62.266c-10.372,20.156-15.754,42.503-15.695,65.166c-0.026,19.558,3.958,38.921,11.686,56.893
	c15.37,35.253,43.851,63.153,79.411,77.79c37.266,15.336,79.078,15.336,116.344,0c17.673-7.216,33.777-17.784,47.425-31.133
	c4.282-4.18,8.299-8.623,12.027-13.306c-43.322-21.802-70.668-66.139-70.711-114.638c-0.009-9.203,0.964-18.381,2.9-27.38
	c2.03-9.306,5.118-18.356,9.212-26.954c-1.791-1.535-3.497-3.071-5.203-4.691c-10.031-9.749-18.108-21.333-23.798-34.119
	c-5.681-13.315-8.581-27.653-8.53-42.136c0-16.803,4.035-33.359,11.771-48.278c1.621-3.071,3.241-5.971,4.862-8.53l-14.927-24.054
	l-17.059-27.38C192.612,78.525,190.258,77.05,187.656,76.99z"/>
<path d="M99.971,442.4c-2.235-0.009-4.384-0.896-5.971-2.474c-12.01-11.737-21.631-25.7-28.318-41.113
	c-6.79-15.814-10.27-32.856-10.236-50.069c-0.034-19.908,4.7-39.535,13.818-57.234c1.868-4.325,6.883-6.32,11.208-4.452
	s6.32,6.883,4.452,11.208c-0.162,0.375-0.35,0.742-0.563,1.092c-7.839,15.277-11.907,32.216-11.856,49.387
	c-0.136,14.876,2.764,29.615,8.53,43.331c5.792,13.392,14.142,25.529,24.565,35.739c3.344,3.318,3.369,8.717,0.051,12.061
	c-1.595,1.604-3.762,2.516-6.022,2.525L99.971,442.4L99.971,442.4z"/>
<path d="M257.428,276.242c-1.842,0-3.642-0.597-5.118-1.706c-3.77-2.849-7.361-5.928-10.747-9.212
	c-10.031-9.749-18.108-21.333-23.798-34.119c-5.681-13.315-8.581-27.653-8.53-42.136c0-16.803,4.035-33.359,11.771-48.278
	c2.559-4.862,5.118-9.212,7.677-13.306c6.312-10.662,13.392-21.068,20.386-31.218c9.041-13.903,17.912-27.807,26.442-41.881
	L304,8.753c5.485-8.734,17.017-11.379,25.751-5.894c2.38,1.493,4.401,3.514,5.894,5.894l28.574,45.634
	c8.53,13.733,17.059,27.977,26.612,41.539l1.706,2.474c9.57,13.554,18.398,27.619,26.442,42.136
	c12.905,24.83,15.362,53.788,6.824,80.434c-1.433,4.487-6.235,6.969-10.722,5.536c-0.478-0.154-0.947-0.35-1.39-0.589
	c-33.666-17.119-73.671-16.223-106.535,2.388c-17.818,10.261-32.413,25.299-42.136,43.416c-1.194,2.192-3.275,3.745-5.715,4.265
	L257.428,276.242z M319.865,17.283c-0.563-0.009-1.083,0.281-1.365,0.768l-28.489,45.378c-8.53,13.903-17.571,28.233-26.954,42.051
	c-6.909,10.065-13.903,20.301-20.045,30.707c-2.644,4.18-4.947,8.53-7.165,12.368c-6.448,12.47-9.818,26.305-9.809,40.345
	c0.009,12.172,2.508,24.224,7.335,35.398c4.777,10.799,11.583,20.591,20.045,28.83l1.791,1.706
	c10.944-17.042,25.802-31.227,43.331-41.369c34.664-19.712,76.468-22.382,113.359-7.25c3.838-19.686,0.827-40.089-8.53-57.831
	c-7.796-13.954-16.334-27.482-25.589-40.516l-1.706-2.474c-9.383-13.818-18.339-28.148-26.954-42.051L321.23,18.05
	C320.957,17.564,320.428,17.274,319.865,17.283z"/>
<path d="M271.246,243.233c-2.226,0.017-4.367-0.844-5.971-2.388c-6.875-6.713-12.402-14.671-16.292-23.456
	c-3.881-8.999-5.885-18.688-5.885-28.489c0-11.31,2.721-22.459,7.933-32.498c1.877-3.582,4.009-7.25,6.227-10.833l0.512-0.768
	c2.303-4.111,7.498-5.578,11.609-3.284c4.111,2.303,5.578,7.498,3.284,11.609c-0.119,0.213-0.247,0.426-0.392,0.631l-0.512,0.853
	c-2.132,3.327-3.924,6.568-5.63,9.724c-3.932,7.591-5.979,16.019-5.971,24.565c-0.009,7.446,1.501,14.825,4.435,21.665
	c3.02,6.781,7.301,12.914,12.624,18.083c3.395,3.267,3.489,8.666,0.222,12.061c-1.621,1.68-3.855,2.627-6.193,2.61V243.233
	L271.246,243.233z"/>
<path d="M362.514,452.294c-70.66,0-127.945-57.285-127.945-127.945c-0.009-9.203,0.964-18.381,2.9-27.38
	c2.525-11.66,6.721-22.894,12.453-33.351c11.208-20.932,28.045-38.298,48.619-50.154c37.94-21.495,84.136-22.518,122.997-2.729
	c62.744,32.489,87.275,109.7,54.777,172.452C454.31,425.699,410.399,452.371,362.514,452.294z M362.514,213.464
	c-40.763,0.009-78.234,22.382-97.579,58.257c-4.947,9.041-8.572,18.757-10.747,28.83c-1.697,7.822-2.55,15.797-2.559,23.798
	c0,61.243,49.643,110.885,110.885,110.885s110.885-49.642,110.885-110.885S423.756,213.464,362.514,213.464z"/>
<path d="M374.285,349.939h-23.542c-8.231,0.085-15.157-6.141-15.95-14.33l-6.397-79.496c-0.324-4.231,1.134-8.402,4.009-11.515
	c3.088-3.318,7.412-5.203,11.942-5.203h36.251c4.529,0,8.854,1.885,11.941,5.203c2.909,3.105,4.393,7.276,4.094,11.515
	l-6.397,79.923C389.237,344.062,382.371,350.049,374.285,349.939z M351.766,332.879h21.665l6.141-76.767h-34.119L351.766,332.879z"
	/>
<path d="M367.034,418.176h-9.041c-11.617-0.043-21.026-9.451-21.068-21.068v-9.041c0.043-11.617,9.451-21.026,21.068-21.068h8.956
	c11.651,0,21.102,9.417,21.153,21.068v8.956C388.103,408.674,378.686,418.133,367.034,418.176z M358.078,384.057
	c-2.192,0.043-3.966,1.817-4.009,4.009v8.956c0.043,2.192,1.817,3.966,4.009,4.009h8.956c2.192-0.043,3.966-1.817,4.009-4.009
	v-8.956c-0.043-2.192-1.817-3.966-4.009-4.009H358.078z"/>
<g>
</g>
<g>
</g>
<g>
</g>
<g>
</g>
<g>
</g>
<g>
</g>
<g>
</g>
<g>
</g>
<g>
</g>
<g>
</g>
<g>
</g>
<g>
</g>
<g>
</g>
<g>
</g>
<g>
</g>
</svg>
