<svg xmlns="http://www.w3.org/2000/svg" viewBox="0 0 512.224 512.224">
    <g fill="currentColor">
        <path d="M321.71,427.573c-42.239-16.782-69.968-57.632-69.973-103.083c0.012-7.976,0.87-15.928,2.56-23.723
			c2.184-10.052,5.805-19.738,10.752-28.757c2.05-3.708,1.069-8.359-2.304-10.923c-3.23-2.426-6.307-5.048-9.216-7.851
			c-8.464-8.246-15.271-18.037-20.053-28.843c-4.832-11.181-7.33-23.232-7.339-35.413c0.112-13.98,3.565-27.731,10.069-40.107
			c2.219-4.096,4.437-8.107,6.997-12.117c1.875-2.848,1.875-6.539,0-9.387l-17.835-28.416l-17.067-27.392
			c-1.981-3.218-4.688-5.925-7.906-7.906c-11.358-6.992-26.233-3.452-33.225,7.906l-50.176,80.64
			c-11.264,18.091-22.869,36.779-34.901,54.784l-3.413,5.035c-14.366,20.576-27.611,41.912-39.68,63.915
			c-11.634,22.559-17.691,47.578-17.664,72.96c-0.034,21.888,4.409,43.551,13.056,63.659c17.164,39.343,48.96,70.466,88.661,86.784
			c20.494,8.539,42.481,12.919,64.683,12.885c22.196,0.061,44.183-4.29,64.683-12.8c19.733-8.091,37.703-19.945,52.907-34.901
			c7.539-7.37,14.341-15.458,20.309-24.149c0.377-0.546,0.689-1.134,0.929-1.752C328.275,434.23,326.102,429.283,321.71,427.573z
			 M293.379,452.49c-13.652,13.353-29.765,23.931-47.445,31.147c-37.281,15.343-79.113,15.343-116.395,0
			c-35.579-14.647-64.068-42.555-79.445-77.824c-7.734-17.978-11.713-37.347-11.691-56.917c-0.06-22.675,5.325-45.033,15.701-65.195
			c11.797-21.438,24.729-42.232,38.741-62.293l3.413-5.035c12.203-18.176,23.893-37.035,35.243-55.211l50.176-80.725
			c1.271-2.132,3.577-3.431,6.059-3.413c2.597,0.056,4.955,1.53,6.144,3.84l17.067,27.392l14.933,24.064
			c-1.621,2.56-3.243,5.461-4.864,8.533c-7.736,14.924-11.775,31.488-11.776,48.299c-0.055,14.486,2.849,28.83,8.533,42.155
			c5.69,12.79,13.771,24.376,23.808,34.133c1.707,1.621,3.413,3.157,5.205,4.693c-4.096,8.605-7.188,17.653-9.216,26.965
			c-1.935,9.002-2.908,18.184-2.901,27.392c0.04,48.518,27.402,92.877,70.741,114.688
			C301.682,443.862,297.664,448.308,293.379,452.49z"/>
        <path d="M100.014,442.592c-0.058,0-0.114-0.008-0.172-0.009c-0.057,0.001-0.113,0.009-0.17,0.009H100.014z"/>
        <path d="M105.646,428c-10.432-10.213-18.778-22.356-24.576-35.755c-5.765-13.718-8.669-28.469-8.533-43.349
				c-0.05-17.18,4.017-34.123,11.861-49.408c0.215-0.349,0.404-0.713,0.566-1.09c1.867-4.327-0.127-9.349-4.455-11.216
				c-4.327-1.867-9.349,0.127-11.216,4.455c-9.119,17.707-13.859,37.342-13.824,57.259c-0.037,17.22,3.447,34.267,10.24,50.091
				c6.69,15.416,16.312,29.385,28.331,41.131c1.549,1.536,3.626,2.412,5.802,2.466c2.201-0.053,4.3-0.949,5.853-2.515
				C109.015,436.721,108.992,431.318,105.646,428z"/>
        <path d="M419.161,140.597c-8.045-14.522-16.876-28.594-26.453-42.155l-1.707-2.475C381.443,82.4,372.91,68.149,364.377,54.41
			L335.79,8.757c-1.496-2.384-3.512-4.4-5.896-5.896c-8.742-5.486-20.277-2.846-25.763,5.896L275.63,54.41
			c-8.533,14.08-17.408,27.989-26.453,41.899c-6.997,10.155-14.08,20.565-20.395,31.232c-2.56,4.096-5.12,8.448-7.68,13.312
			c-7.736,14.924-11.775,31.488-11.776,48.299c-0.055,14.486,2.849,28.83,8.533,42.155c5.69,12.79,13.771,24.375,23.808,34.133
			c3.392,3.29,6.982,6.367,10.752,9.216c1.477,1.108,3.274,1.707,5.12,1.707l1.877-0.256c2.437-0.519,4.526-2.078,5.717-4.267
			c9.724-18.127,24.326-33.173,42.155-43.435c32.878-18.622,72.902-19.52,106.581-2.389c0.446,0.236,0.912,0.432,1.393,0.585
			c4.49,1.433,9.291-1.045,10.724-5.535C434.525,194.405,432.068,165.439,419.161,140.597z M412.078,206.304
			c-36.909-15.139-78.729-12.464-113.408,7.253c-17.537,10.149-32.399,24.338-43.349,41.387l-1.792-1.707
			c-8.464-8.246-15.271-18.037-20.053-28.843c-4.832-11.181-7.33-23.232-7.339-35.413c-0.007-14.046,3.358-27.888,9.813-40.363
			c2.219-3.84,4.523-8.192,7.168-12.373c6.144-10.411,13.141-20.651,20.053-30.72c9.387-13.824,18.432-28.16,26.965-42.069
			l28.501-45.397c0.281-0.486,0.804-0.781,1.365-0.768c0.561-0.013,1.085,0.282,1.365,0.768l27.904,45.312
			c8.619,13.909,17.579,28.245,26.965,42.069l1.707,2.475c9.258,13.04,17.803,26.571,25.6,40.533
			C412.91,166.194,415.921,186.61,412.078,206.304z"/>
        <path d="M277.337,228.746c-5.325-5.17-9.612-11.31-12.629-18.091c-2.938-6.848-4.448-14.223-4.437-21.675
			c-0.005-8.552,2.044-16.98,5.973-24.576c1.707-3.157,3.499-6.4,5.632-9.728l0.512-0.853c0.138-0.204,0.268-0.414,0.388-0.629
			c2.301-4.113,0.831-9.313-3.282-11.613c-4.113-2.301-9.313-0.831-11.613,3.282l-0.512,0.768
			c-2.219,3.584-4.352,7.253-6.229,10.837c-5.211,10.045-7.932,21.195-7.936,32.512c-0.002,9.803,2.002,19.502,5.888,28.501
			c3.892,8.787,9.424,16.751,16.299,23.467c1.603,1.545,3.747,2.403,5.973,2.389v0.085c2.336,0.014,4.575-0.93,6.196-2.611
			C280.83,237.419,280.73,232.017,277.337,228.746z"/>
        <path d="M421.721,210.826c-38.875-19.801-85.092-18.776-123.051,2.731c-20.579,11.858-37.428,29.239-48.64,50.176
			c-5.734,10.466-9.93,21.703-12.459,33.365c-1.935,9.002-2.908,18.184-2.901,27.392c0,70.692,57.308,128,128,128
			c47.899,0.071,91.829-26.606,113.855-69.14C509.033,320.575,484.496,243.334,421.721,210.826z M362.67,435.424
			c-61.267,0-110.933-49.667-110.933-110.933c0.006-8.004,0.864-15.985,2.56-23.808c2.178-10.081,5.799-19.796,10.752-28.843
			c19.355-35.894,56.842-58.275,97.621-58.283c61.267,0,110.933,49.666,110.933,110.933S423.937,435.424,362.67,435.424z"/>
        <path d="M392.707,244.704c-3.085-3.321-7.414-5.207-11.947-5.205h-36.267c-4.533-0.002-8.862,1.884-11.947,5.205
			c-2.879,3.116-4.332,7.29-4.011,11.52l6.4,79.531c0.796,8.194,7.725,14.419,15.957,14.336h23.552
			c8.086,0.105,14.958-5.885,15.957-13.909l6.4-79.957C397.102,251.981,395.617,247.806,392.707,244.704z M373.593,333.024h-21.675
			l-6.315-76.8h34.133L373.593,333.024z"/>
        <path d="M367.107,367.157h-8.96c-11.621,0.047-21.031,9.456-21.077,21.077v9.045c0.047,11.621,9.456,21.031,21.077,21.077h9.045
			c11.654-0.047,21.077-9.508,21.077-21.163v-8.96C388.223,376.58,378.762,367.157,367.107,367.157z M371.203,397.194
			c-0.045,2.196-1.815,3.965-4.011,4.011h-8.96c-2.196-0.045-3.965-1.815-4.011-4.011v-8.96c0.045-2.196,1.815-3.965,4.011-4.011
			h8.96c2.196,0.045,3.965,1.815,4.011,4.011V397.194z"/>
    </g>
</svg>
