<svg xmlns="http://www.w3.org/2000/svg" height="590.962pt" version="1.1" viewBox="1 1 590.962 590.962" width="590.962pt">
<g id="surface1">
<path d="M 295.5 51.761719 C 160.886719 51.761719 51.757812 160.886719 51.757812 295.5 C 51.757812 430.113281 160.886719 539.242188 295.5 539.242188 C 430.113281 539.242188 539.238281 430.113281 539.238281 295.5 C 538.984375 160.988281 430.011719 52.015625 295.5 51.761719 Z M 295.5 51.761719 " style=" stroke:none;fill-rule:nonzero;fill:rgb(100%,100%,100%);fill-opacity:1;" />
<path d="M 460.492188 474.832031 C 367.21875 560.679688 223.714844 560.679688 130.441406 474.832031 C 223.714844 388.988281 367.21875 388.988281 460.492188 474.832031 Z M 460.492188 474.832031 " style=" stroke:none;fill-rule:nonzero;fill:rgb(99.607843%,49.803922%,24.313725%);fill-opacity:1;" />
<path d="M 315.511719 330.179688 C 299.28125 345.171875 271.902344 334.679688 260.820312 315.511719 C 249.738281 296.347656 254.300781 267.402344 275.488281 260.820312 L 447.976562 207.496094 Z M 315.511719 330.179688 " style=" stroke:none;fill-rule:nonzero;fill:rgb(99.607843%,49.803922%,24.313725%);fill-opacity:1;" />
<path d="M 295.5 0 C 132.300781 0 0 132.300781 0 295.5 C 0 458.699219 132.300781 591 295.5 591 C 458.699219 591 591 458.699219 591 295.5 C 590.714844 132.417969 458.582031 0.285156 295.5 0 Z M 295.5 539.175781 C 164.835938 538.90625 57.527344 435.832031 52.019531 305.277344 L 78.097656 305.277344 C 83.492188 305.277344 87.875 300.898438 87.875 295.5 C 87.875 290.101562 83.496094 285.722656 78.097656 285.722656 L 52.019531 285.722656 C 53.441406 249.585938 62.957031 214.234375 79.855469 182.265625 L 102.671875 195.304688 C 107.351562 198.003906 113.335938 196.398438 116.035156 191.71875 C 118.734375 187.039062 117.132812 181.054688 112.449219 178.355469 L 89.765625 165.316406 C 109.046875 134.902344 134.769531 109.085938 165.125 89.699219 L 178.160156 112.382812 C 180.859375 117.0625 186.84375 118.667969 191.523438 115.96875 C 196.207031 113.269531 197.808594 107.285156 195.109375 102.605469 L 182.070312 79.921875 C 214.09375 62.972656 249.515625 53.433594 285.722656 52.019531 L 285.722656 78.097656 C 285.539062 83.492188 289.769531 88.015625 295.167969 88.195312 C 295.277344 88.199219 295.386719 88.199219 295.5 88.199219 C 300.894531 88.199219 305.277344 83.820312 305.277344 78.421875 L 305.277344 52.347656 C 341.410156 53.765625 376.761719 63.285156 408.730469 80.183594 L 395.695312 103 C 392.996094 107.679688 394.597656 113.664062 399.277344 116.363281 C 403.960938 119.0625 409.945312 117.457031 412.644531 112.777344 L 425.679688 90.089844 C 456.066406 109.277344 481.875 134.890625 501.300781 165.125 L 478.613281 178.160156 C 473.933594 180.859375 472.328125 186.84375 475.027344 191.523438 C 477.726562 196.207031 483.710938 197.808594 488.390625 195.109375 L 511.078125 182.074219 C 527.976562 214.039062 537.492188 249.394531 538.914062 285.527344 L 512.839844 285.527344 C 507.441406 285.527344 503.058594 289.90625 503.058594 295.304688 C 503.058594 300.703125 507.441406 305.085938 512.839844 305.085938 L 538.914062 305.085938 C 533.542969 435.707031 426.234375 538.933594 295.5 539.238281 C 295.5 539.238281 295.5 539.175781 295.5 539.175781 Z M 295.5 539.175781 " style=" stroke:none;fill-rule:nonzero;fill:rgb(27.45098%,35.294118%,39.607843%);fill-opacity:1;" />
<path d="M 316.359375 295.5 C 316.359375 307.019531 307.019531 316.359375 295.5 316.359375 C 283.980469 316.359375 274.640625 307.019531 274.640625 295.5 C 274.640625 283.980469 283.980469 274.640625 295.5 274.640625 C 307.019531 274.640625 316.359375 283.980469 316.359375 295.5 Z M 316.359375 295.5 " style=" stroke:none;fill-rule:nonzero;fill:rgb(100%,100%,100%);fill-opacity:1;" />
</g>
</svg>