<?xml version="1.0" encoding="iso-8859-1"?>
<svg version="1.1" id="Capa_1" xmlns="http://www.w3.org/2000/svg" xmlns:xlink="http://www.w3.org/1999/xlink" x="0px" y="0px"
	 width="365.445px" height="365.445px" viewBox="0 0 365.445 365.445" style="enable-background:new 0 0 365.445 365.445;"
	 xml:space="preserve">
<g style="fill: currentColor" >
	<path style="fill: currentColor" d="M146.7,162.775h-26.8c-3.665,0-6.647,2.982-6.647,6.647v26.602c0,3.666,2.982,6.646,6.647,6.646h26.8
		c3.666,0,6.647-2.982,6.647-6.646v-26.602C153.347,165.757,150.365,162.775,146.7,162.775z"/>
	<path style="fill: currentColor" d="M245.547,162.775h-26.801c-3.666,0-6.646,2.982-6.646,6.647v26.602c0,3.666,2.981,6.646,6.646,6.646h26.801
		c3.664,0,6.646-2.982,6.646-6.646v-26.602C252.193,165.757,249.211,162.775,245.547,162.775z"/>
</g>
<path  style="fill: currentColor" d="M345.445,1.204H20c-11.046,0-20,8.954-20,20v323.037c0,11.045,8.954,20,20,20h325.445c11.045,0,20-8.955,20-20V21.204
	C365.445,10.159,356.492,1.204,345.445,1.204z M182.723,287.66c-57.955,0-104.937-46.981-104.937-104.937
	c0-57.957,46.982-104.938,104.937-104.938c57.955,0,104.937,46.982,104.937,104.938C287.66,240.679,240.678,287.66,182.723,287.66
	z"/>

</svg>
