<?xml version="1.0" encoding="iso-8859-1"?>
<!-- Generator: Adobe Illustrator 16.0.0, SVG Export Plug-In . SVG Version: 6.00 Build 0)  -->
<!DOCTYPE svg PUBLIC "-//W3C//DTD SVG 1.1//EN" "http://www.w3.org/Graphics/SVG/1.1/DTD/svg11.dtd">
<svg version="1.1" id="Capa_1" xmlns="http://www.w3.org/2000/svg" xmlns:xlink="http://www.w3.org/1999/xlink" x="0px" y="0px"
	 width="45.659px" height="45.659px" viewBox="0 0 45.659 45.659" style="enable-background:new 0 0 45.659 45.659;"
	 xml:space="preserve">
<g>
	<g>
		<path d="M30.619,27.309V7.781C30.619,3.49,27.124,0,22.833,0c-4.29,0-7.785,3.491-7.785,7.78v19.528
			c-1.902,1.949-3.05,4.604-3.05,7.522c0,5.972,4.857,10.828,10.829,10.828c5.97,0,10.834-4.856,10.834-10.828
			C33.661,31.912,32.52,29.258,30.619,27.309z M22.825,42.66c-4.316,0-7.824-3.512-7.824-7.828c0-2.527,1.174-4.779,3.077-6.211
			V16.237h3.372c0.552,0,1-0.47,1-1.022c0-0.553-0.448-1.021-1-1.021h-3.372v-2.466h3.372c0.552,0,1-0.434,1-0.986
			c0-0.552-0.448-0.986-1-0.986h-3.372V7.78c0-2.636,2.119-4.78,4.754-4.78c2.637,0,4.756,2.144,4.756,4.781v20.871
			c1.903,1.434,3.047,3.671,3.047,6.18C30.635,39.148,27.141,42.66,22.825,42.66z"/>
		<path d="M25.334,30.463V18.632h-5.002v11.831c-1.549,0.874-2.537,2.502-2.537,4.369c0,2.788,2.251,5.046,5.038,5.046
			c2.788,0,5.034-2.258,5.034-5.046C27.867,32.966,26.885,31.337,25.334,30.463z"/>
	</g>
</g>
<g>
</g>
<g>
</g>
<g>
</g>
<g>
</g>
<g>
</g>
<g>
</g>
<g>
</g>
<g>
</g>
<g>
</g>
<g>
</g>
<g>
</g>
<g>
</g>
<g>
</g>
<g>
</g>
<g>
</g>
</svg>
