<?xml version="1.0" encoding="iso-8859-1"?>
<!-- Generator: Adobe Illustrator 19.0.0, SVG Export Plug-In . SVG Version: 6.00 Build 0)  -->
<svg version="1.1" id="Capa_1" xmlns="http://www.w3.org/2000/svg" xmlns:xlink="http://www.w3.org/1999/xlink" x="0px" y="0px"
	 viewBox="0 0 512 512" style="enable-background:new 0 0 512 512;" xml:space="preserve">
<linearGradient id="SVGID_1_" gradientUnits="userSpaceOnUse" x1="0" y1="258" x2="512" y2="258" gradientTransform="matrix(1 0 0 -1 0 514)">
	<stop  offset="0" style="stop-color:#80D8FF"/>
	<stop  offset="1" style="stop-color:#EA80FC"/>
</linearGradient>
<path style="fill:url(#SVGID_1_);" d="M137.996,217.213c-66.402,0-100.73-29.446-131.017-55.426
	c-8.384-7.191-9.351-19.818-2.159-28.202c7.191-8.385,19.818-9.351,28.202-2.159c28.642,24.569,53.378,45.787,104.974,45.787
	c51.598,0,76.336-21.219,104.98-45.787C273.265,105.446,307.595,76,373.998,76c66.401,0,100.731,29.444,131.02,55.424
	c8.384,7.19,9.353,19.818,2.161,28.202c-7.191,8.385-19.816,9.354-28.201,2.161C450.333,137.218,425.595,116,373.998,116
	c-51.599,0-76.336,21.219-104.98,45.787C238.729,187.767,204.399,217.213,137.996,217.213z M269.018,271.181
	c28.644-24.568,53.382-45.787,104.98-45.787c51.599,0,76.337,21.219,104.98,45.787c8.385,7.191,21.011,6.225,28.202-2.159
	c7.191-8.385,6.225-21.011-2.16-28.202c-30.289-25.979-64.619-55.426-131.022-55.426S273.265,214.84,242.976,240.82
	c-28.644,24.568-53.382,45.787-104.98,45.787c-51.597,0-76.332-21.218-104.974-45.787c-8.384-7.191-21.01-6.226-28.202,2.159
	c-7.192,8.384-6.225,21.011,2.159,28.202c30.288,25.979,64.616,55.426,131.017,55.426
	C204.399,326.606,238.729,297.16,269.018,271.181z M269.018,380.574c28.644-24.568,53.382-45.787,104.98-45.787
	c51.599,0,76.337,21.219,104.98,45.787c8.385,7.191,21.011,6.225,28.202-2.159c7.191-8.385,6.225-21.011-2.16-28.202
	c-30.289-25.979-64.619-55.426-131.022-55.426s-100.733,29.446-131.022,55.426C214.332,374.781,189.594,396,137.996,396
	c-51.594,0-76.331-21.218-104.973-45.785l-0.002-0.002c-8.384-7.189-21.009-6.223-28.201,2.16
	c-7.191,8.384-6.224,21.011,2.16,28.202C37.268,406.555,71.597,436,137.996,436C204.399,436,238.729,406.554,269.018,380.574z"/>
<g>
</g>
<g>
</g>
<g>
</g>
<g>
</g>
<g>
</g>
<g>
</g>
<g>
</g>
<g>
</g>
<g>
</g>
<g>
</g>
<g>
</g>
<g>
</g>
<g>
</g>
<g>
</g>
<g>
</g>
</svg>
