<svg xmlns="http://www.w3.org/2000/svg" viewBox="0 0 361 361">
    <path style="fill:none; stroke: currentColor;stroke-width:10;stroke-miterlimit:10;" d="M267.826,263.303c0,3.91-3.156,7.082-7.05,7.082
		l-157.885,0.021c-3.894,0-7.05-3.171-7.05-7.083v-157.5c0-3.911,3.156-7.083,7.05-7.083l157.885-0.021
		c3.894,0,7.05,3.172,7.05,7.083V263.303z"/>
    <path style="fill: currentColor;" d="M258.5,185.584c2.213,0,4.426,0,6.639,0c2.726,0,5-2.274,5-5s-2.274-5-5-5
			c-2.213,0-4.426,0-6.639,0c-2.726,0-5,2.274-5,5S255.774,185.584,258.5,185.584L258.5,185.584z"/>
    <path style="fill:none; stroke: currentColor; stroke-width: 10; stroke-miterlimit: 10;" d="M267.826,103.208c0,2.485-2.711,4.5-6.053,4.5
		l-159.88,0.021c-3.342,0-6.052-2.015-6.052-4.5v-9c0-2.485,2.71-4.5,6.052-4.5l159.88-0.021c3.342,0,6.053,2.015,6.053,4.5V103.208
		z"/>
</svg>
