<?xml version="1.0" encoding="iso-8859-1"?>
<!-- Generator: Adobe Illustrator 19.0.0, SVG Export Plug-In . SVG Version: 6.00 Build 0)  -->
<svg version="1.1" id="Layer_1" xmlns="http://www.w3.org/2000/svg" xmlns:xlink="http://www.w3.org/1999/xlink" x="0px" y="0px"
	 viewBox="0 0 512 512" style="enable-background:new 0 0 512 512;" xml:space="preserve">
<path style="fill:#4E342E;" d="M494.933,38.4H17.067c-4.71,0-8.533,3.823-8.533,8.533v358.4c0,4.71,3.823,8.533,8.533,8.533h477.867
	c4.71,0,8.533-3.823,8.533-8.533v-358.4C503.467,42.223,499.644,38.4,494.933,38.4z M469.333,371.2c0,4.71-3.823,8.533-8.533,8.533
	H298.667c-4.71,0-8.533-3.823-8.533-8.533V81.067c0-4.71,3.823-8.533,8.533-8.533H460.8c4.71,0,8.533,3.823,8.533,8.533V371.2z"/>
<path style="fill:#795548;" d="M290.133,81.067V371.2c0,4.71,3.823,8.533,8.533,8.533H460.8c4.71,0,8.533-3.823,8.533-8.533v34.133
	c0.009,4.489-3.456,8.218-7.936,8.533H16.469c-4.48-0.316-7.945-4.045-7.936-8.533v-358.4c-0.009-4.489,3.456-8.218,7.936-8.533
	h444.928c4.48,0.316,7.945,4.045,7.936,8.533v34.133c0-4.71-3.823-8.533-8.533-8.533H298.667
	C293.956,72.533,290.133,76.356,290.133,81.067z"/>
<path d="M494.933,422.4H435.2v-17.067h59.733v-358.4H17.067v358.4H358.4V422.4H17.067C7.637,422.4,0,414.763,0,405.333v-358.4
	c0-9.429,7.637-17.067,17.067-17.067h477.867c9.429,0,17.067,7.637,17.067,17.067v358.4C512,414.763,504.363,422.4,494.933,422.4z"
	/>
<path d="M256,422.4c-4.71,0-8.533-3.823-8.533-8.533V38.4c0-4.71,3.823-8.533,8.533-8.533c4.71,0,8.533,3.823,8.533,8.533v375.467
	C264.533,418.577,260.71,422.4,256,422.4z"/>
<path style="fill:#0377BC;" d="M51.2,72.533h162.133c4.71,0,8.533,3.823,8.533,8.533V371.2c0,4.71-3.823,8.533-8.533,8.533H51.2
	c-4.71,0-8.533-3.823-8.533-8.533V81.067C42.667,76.356,46.49,72.533,51.2,72.533z"/>
<path style="fill:#02A9F4;" d="M50.005,72.533h138.923c4.369,0.367,7.637,4.164,7.339,8.533V371.2
	c0.299,4.369-2.97,8.166-7.339,8.533H50.005c-4.369-0.367-7.637-4.164-7.339-8.533V81.067C42.368,76.698,45.636,72.9,50.005,72.533z
	"/>
<path d="M213.333,388.267H51.2c-9.429,0-17.067-7.637-17.067-17.067V81.067C34.133,71.637,41.771,64,51.2,64h162.133
	c9.429,0,17.067,7.637,17.067,17.067V371.2C230.4,380.629,222.763,388.267,213.333,388.267z M51.2,81.067L51.2,81.067V371.2h162.133
	V81.067H51.2z"/>
<path style="fill:#0377BC;" d="M469.333,72.533v303.275c0,2.492-1.092,4.864-2.987,6.485l-23.125,22.016l-70.741,67.243
	c-3.584,3.063-8.969,2.645-12.032-0.939c-1.323-1.544-2.048-3.516-2.048-5.547V178.859c-0.085-0.683-0.085-1.365,0-2.048
	c0.427-1.724,1.382-3.277,2.731-4.437L469.333,72.533z"/>
<path style="fill:#02A9F4;" d="M443.733,98.133v303.275c0,0.99-0.171,1.971-0.512,2.901l-70.741,67.243
	c-3.584,3.063-8.969,2.645-12.032-0.939c-1.323-1.545-2.048-3.516-2.048-5.547V178.859c-0.085-0.683-0.085-1.365,0-2.048
	L443.733,98.133z"/>
<path d="M366.933,482.133c-9.429,0-17.067-7.637-17.067-17.067V178.859c0.128-4.796,2.261-9.318,5.888-12.459L463.531,66.304
	c3.456-3.209,8.858-3.004,12.058,0.452c1.459,1.57,2.27,3.635,2.278,5.777v303.275c0,5.035-2.21,9.813-6.059,13.056l-93.867,88.917
	C374.878,480.452,370.995,481.988,366.933,482.133z M460.8,92.075l-93.867,86.528l0,0l0,0v286.464l93.867-88.917V92.075z"/>
<path d="M76.8,115.2c-1.118-0.017-2.219-0.247-3.243-0.683c-1.05-0.41-2.005-1.015-2.816-1.792
	c-0.751-0.828-1.357-1.783-1.792-2.816c-0.913-2.065-0.913-4.42,0-6.485c0.435-1.033,1.041-1.988,1.792-2.816
	c3.319-3.345,8.721-3.371,12.066-0.051c0.017,0.017,0.034,0.034,0.051,0.051c0.751,0.828,1.357,1.783,1.792,2.816
	c1.792,4.361-0.29,9.344-4.651,11.136C78.985,114.978,77.901,115.191,76.8,115.2z"/>
<path d="M162.133,115.2h-51.2c-4.71,0-8.533-3.823-8.533-8.533s3.823-8.533,8.533-8.533h51.2c4.71,0,8.533,3.823,8.533,8.533
	S166.844,115.2,162.133,115.2z"/>
<path d="M358.4,209.067c-1.118-0.017-2.219-0.247-3.243-0.683c-1.05-0.41-2.005-1.015-2.816-1.792
	c-1.596-1.613-2.492-3.789-2.475-6.059c-0.017-2.27,0.879-4.446,2.475-6.059c2.014-1.997,4.898-2.859,7.68-2.304h1.621
	c1.007,0.521,1.946,1.152,2.816,1.877c0.777,0.811,1.382,1.766,1.792,2.816c0.913,2.065,0.913,4.42,0,6.485
	c-0.435,1.033-1.041,1.988-1.792,2.816C362.923,207.923,360.73,208.973,358.4,209.067z"/>
<path id="SVGCleanerId_0" d="M358.4,388.267h-59.733c-9.429,0-17.067-7.637-17.067-17.067V81.067
	c0-9.429,7.637-17.067,17.067-17.067h170.667c4.71,0,8.533,3.823,8.533,8.533c0,4.71-3.823,8.533-8.533,8.533H298.667V371.2H358.4
	c4.71,0,8.533,3.823,8.533,8.533C366.933,384.444,363.11,388.267,358.4,388.267z"/>
<g>
	<path id="SVGCleanerId_0_1_" d="M358.4,388.267h-59.733c-9.429,0-17.067-7.637-17.067-17.067V81.067
		c0-9.429,7.637-17.067,17.067-17.067h170.667c4.71,0,8.533,3.823,8.533,8.533c0,4.71-3.823,8.533-8.533,8.533H298.667V371.2H358.4
		c4.71,0,8.533,3.823,8.533,8.533C366.933,384.444,363.11,388.267,358.4,388.267z"/>
</g>
<path d="M392.533,209.067c-4.71,0.009-8.542-3.806-8.55-8.516c-0.009-2.543,1.126-4.966,3.089-6.588l51.2-42.667
	c3.627-3.012,9.02-2.517,12.032,1.109c3.012,3.627,2.517,9.02-1.109,12.032l-51.2,42.667
	C396.459,208.375,394.53,209.067,392.533,209.067z"/>
<path d="M392.533,320c-1.34-0.009-2.654-0.333-3.84-0.939l-34.133-17.067c-4.156-2.227-5.717-7.398-3.49-11.554
	c2.133-3.977,6.989-5.606,11.085-3.721l34.133,17.067c4.241,2.057,6.016,7.159,3.959,11.401
	C398.814,318.14,395.819,320.017,392.533,320z"/>
<g>
</g>
<g>
</g>
<g>
</g>
<g>
</g>
<g>
</g>
<g>
</g>
<g>
</g>
<g>
</g>
<g>
</g>
<g>
</g>
<g>
</g>
<g>
</g>
<g>
</g>
<g>
</g>
<g>
</g>
</svg>
