<svg xmlns="http://www.w3.org/2000/svg" viewBox="0 0 512.001 512.001">
    <path style="fill:#B7E4F8;" d="M148.202,60.365c-11.981,0-23.604,4.268-32.726,12.017l0.019,0.022
	c-5.392,4.547-8.828,11.429-8.828,19.131c0,13.692,10.859,24.791,24.254,24.791c13.372,0,24.214-11.06,24.253-24.718
	c7.915,2.865,13.597,10.435,13.597,19.326c0,11.341-9.227,20.568-20.568,20.568H0v30h148.202c27.883,0,50.568-22.685,50.568-50.568
	S176.085,60.365,148.202,60.365z"/>
    <polygon style="fill:#93D6F4;" points="400.439,420.007 392.189,428.257 383.939,420.007 362.727,441.22 370.977,449.47
		362.727,457.719 383.939,478.932 392.189,470.683 400.439,478.932 421.652,457.719 413.402,449.47 421.652,441.22 	"/>
    <polygon style="fill:#93D6F4;" points="511.939,329.599 490.727,308.386 482.477,316.636 474.227,308.386 453.014,329.599
		461.264,337.849 453.014,346.099 474.227,367.311 482.477,359.062 490.727,367.311 511.939,346.099 503.69,337.849 	"/>
    <polygon style="fill:#B7E4F8;" points="101.772,361.719 93.523,369.969 85.273,361.719 64.06,382.932 72.31,391.182 64.06,399.432
		85.273,420.645 93.523,412.395 101.772,420.645 122.985,399.432 114.735,391.182 122.985,382.932 	"/>
    <polygon style="fill:#B7E4F8;" points="261.652,25.22 240.439,4.007 232.189,12.257 223.939,4.007 202.727,25.22 210.977,33.47
		202.727,41.719 223.939,62.932 232.189,54.683 240.439,62.932 261.652,41.719 253.402,33.47 	"/>
    <path style="fill:#DBF1FB;" d="M482,162.604c0-62.755-51.055-113.81-113.81-113.81c-47.997,0-87.045,39.048-87.045,87.045
	c0,36.305,29.536,65.842,65.842,65.842c27.043,0,49.044-22.001,49.044-49.044c0-8.17-2.762-15.704-7.394-21.729
	c-4.905,10.715-15.714,18.164-28.27,18.164c-17.167,0-31.083-13.917-31.083-31.083c0-17.142,13.876-31.042,31.009-31.082V86.9
	c36.248,0,65.737,29.49,65.737,65.736c0,43.585-35.459,79.044-79.044,79.044c-30.352,0-57.449-14.186-75.022-36.27H0v15l0,0v85.581
	l0,0v14.206h334.405C415.79,310.198,482,243.987,482,162.604z"/>
    <path style="fill:#B7E4F8;" d="M270.248,324.91v-14.712H0v0.619v29.381v0.619h216.798c43.257,0,78.449,35.116,78.449,78.278
		c0,32.341-26.263,58.668-58.626,58.887c-21.126-0.219-38.248-17.487-38.248-38.692c0-15.188,12.338-27.545,27.503-27.545
		c2.668,0,5.202,0.573,7.5,1.588c-4.428,4.491-7.171,10.715-7.171,17.595c0,13.691,10.859,24.791,24.254,24.791
		s24.254-11.099,24.254-24.791c0-1.321-0.103-2.618-0.298-3.882c-1.754-25.272-22.847-45.301-48.54-45.301
		c-31.708,0-57.503,25.814-57.503,57.545c0,37.611,30.361,68.245,67.843,68.683v0.021c0.18,0,0.359-0.006,0.539-0.007
		c0.09,0,0.179,0.007,0.27,0.007v-0.011c48.72-0.436,88.222-40.139,88.222-88.887C325.247,378.781,303.064,343.547,270.248,324.91z"
    />
    <path style="fill:#B7E4F8;" d="M368.19,48.794c-47.997,0-87.045,39.048-87.045,87.045c0,36.305,29.536,65.842,65.842,65.842
		c27.043,0,49.044-22.001,49.044-49.044c0-8.17-2.762-15.704-7.394-21.729c-4.905,10.715-15.714,18.164-28.27,18.164
		c-17.167,0-31.083-13.917-31.083-31.083c0-17.142,13.876-31.042,31.009-31.082V86.9c36.248,0,65.737,29.49,65.737,65.736
		c0,43.585-35.459,79.044-79.044,79.044c-30.352,0-57.449-14.186-75.022-36.27h-16.383v114.787h78.823
		c81.385,0,147.595-66.21,147.595-147.594C482,99.849,430.945,48.794,368.19,48.794z"/>
    <path style="fill:#B7E4F8;" d="M274.714,430.927c0-1.321-0.103-2.618-0.298-3.882c-0.991-14.278-8.157-26.879-18.835-35.144v63.258
		C266.517,452.756,274.714,442.822,274.714,430.927z"/>
    <path style="fill:#93D6F4;" d="M368.19,18.794c-64.54,0-117.045,52.506-117.045,117.045c0,22.496,7.794,43.203,20.819,59.572
	c17.573,22.084,44.671,36.27,75.022,36.27c43.585,0,79.044-35.459,79.044-79.044c0-36.247-29.489-65.736-65.737-65.736v0.006
	c-17.132,0.04-31.009,13.94-31.009,31.082c0,17.167,13.917,31.083,31.083,31.083c12.556,0,23.364-7.448,28.27-18.164
	c4.631,6.026,7.394,13.559,7.394,21.729c0,27.043-22.001,49.044-49.044,49.044c-36.306,0-65.842-29.537-65.842-65.842
	c0-47.997,39.048-87.045,87.045-87.045c62.755,0,113.81,51.055,113.81,113.81c0,81.384-66.21,147.594-147.595,147.594h-78.614
	h-0.209v40.896c23.667,13.493,39.666,38.91,39.666,68c0,25.708-16.603,47.601-39.666,55.616v31.15
	c39.81-8.851,69.666-44.387,69.666-86.766c0-31.08-13.194-59.133-34.272-78.897h43.43c97.927,0,177.595-79.668,177.595-177.594
	C512,83.307,447.487,18.794,368.19,18.794z"/>
    <rect y="239.99" style="fill:#B7E4F8;" width="213.33" height="30"/>
</svg>
