<?xml version="1.0" encoding="iso-8859-1"?>
<!-- Generator: Adobe Illustrator 19.0.0, SVG Export Plug-In . SVG Version: 6.00 Build 0)  -->
<svg version="1.1" id="Layer_1" xmlns="http://www.w3.org/2000/svg" xmlns:xlink="http://www.w3.org/1999/xlink" x="0px" y="0px"
	 viewBox="0 0 512 512" style="enable-background:new 0 0 512 512;" xml:space="preserve">
<g>
	<g>
		<path d="M494.933,59.733H17.067C7.641,59.733,0,67.374,0,76.8v358.4c0,9.426,7.641,17.067,17.067,17.067h477.867
			c9.426,0,17.067-7.641,17.067-17.067V76.8C512,67.374,504.359,59.733,494.933,59.733z M494.933,435.2H17.067V76.8h477.867V435.2z"
			/>
	</g>
</g>
<g>
	<g>
		<path d="M256,59.733c-4.713,0-8.533,3.82-8.533,8.533v375.467c0,4.713,3.82,8.533,8.533,8.533s8.533-3.82,8.533-8.533V68.267
			C264.533,63.554,260.713,59.733,256,59.733z"/>
	</g>
</g>
<g>
	<g>
		<path d="M213.333,93.867H51.2c-9.426,0-17.067,7.641-17.067,17.067v290.133c0,9.426,7.641,17.067,17.067,17.067h162.133
			c9.426,0,17.067-7.641,17.067-17.067V110.933C230.4,101.508,222.759,93.867,213.333,93.867z M213.333,401.067H51.2V110.933
			h162.133V401.067z"/>
	</g>
</g>
<g>
	<g>
		<path d="M460.8,93.867H298.667c-9.426,0-17.067,7.641-17.067,17.067v290.133c0,9.426,7.641,17.067,17.067,17.067H460.8
			c9.426,0,17.067-7.641,17.067-17.067V110.933C477.867,101.508,470.226,93.867,460.8,93.867z M460.8,401.067H298.667V110.933H460.8
			V401.067z"/>
	</g>
</g>
<g>
	<g>
		<path d="M329.387,266.24l-34.133-25.6c-3.77-2.828-9.119-2.064-11.947,1.707s-2.064,9.119,1.707,11.947l34.133,25.6
			c1.477,1.108,3.274,1.707,5.12,1.707c2.686,0,5.215-1.265,6.827-3.413C333.921,274.416,333.157,269.068,329.387,266.24z"/>
	</g>
</g>
<g>
	<g>
		<path d="M84.651,133.291c-0.406-1.047-1.015-2.004-1.792-2.816c-0.016-0.017-0.033-0.033-0.049-0.049
			c-3.346-3.319-8.749-3.297-12.068,0.049c-0.777,0.812-1.386,1.769-1.792,2.816c-0.417,1.016-0.635,2.102-0.64,3.2
			c-0.023,4.713,3.778,8.552,8.491,8.576c1.098-0.005,2.185-0.223,3.2-0.64C84.36,142.636,86.442,137.65,84.651,133.291z"/>
	</g>
</g>
<g>
	<g>
		<path d="M162.133,128h-51.2c-4.713,0-8.533,3.82-8.533,8.533s3.82,8.533,8.533,8.533h51.2c4.713,0,8.533-3.82,8.533-8.533
			S166.846,128,162.133,128z"/>
	</g>
</g>
<g>
	<g>
		<path d="M297.984,133.291c-0.432-1.034-1.038-1.987-1.792-2.816c-0.016-0.017-0.033-0.033-0.049-0.049
			c-3.346-3.319-8.749-3.297-12.068,0.049c-0.754,0.829-1.36,1.782-1.792,2.816c-0.481,1.012-0.715,2.123-0.683,3.243
			c0,4.713,3.82,8.533,8.533,8.533c1.109,0.014,2.211-0.189,3.243-0.597c1.02-0.495,1.967-1.126,2.816-1.877
			C298.613,140.138,299.32,136.468,297.984,133.291z"/>
	</g>
</g>
<g>
	<g>
		<path d="M375.467,128h-51.2c-4.713,0-8.533,3.82-8.533,8.533s3.82,8.533,8.533,8.533h51.2c4.713,0,8.533-3.82,8.533-8.533
			S380.18,128,375.467,128z"/>
	</g>
</g>
<g>
</g>
<g>
</g>
<g>
</g>
<g>
</g>
<g>
</g>
<g>
</g>
<g>
</g>
<g>
</g>
<g>
</g>
<g>
</g>
<g>
</g>
<g>
</g>
<g>
</g>
<g>
</g>
<g>
</g>
</svg>
